<svg xmlns="http://www.w3.org/2000/svg" width="192" height="42" fill="none" viewBox="0 0 192 42"><path fill="#FECB16" d="M9.45923 24.1197C7.41922 22.0837 6.27361 19.3227 6.27441 16.4442C6.27522 13.5656 7.42238 10.8053 9.46353 8.77042C11.5047 6.73555 14.2726 5.59282 17.1584 5.59363C20.0443 5.59443 22.8116 6.7387 24.8516 8.77471L22.2718 11.3479C21.256 10.3349 19.9613 9.64578 18.5521 9.368C17.1429 9.09021 15.6828 9.23629 14.357 9.7877C13.0312 10.3391 11.8995 11.271 11.1056 12.4651C10.3116 13.6591 9.89126 15.0616 9.89778 16.4944C9.89011 17.4501 10.074 18.3977 10.4388 19.2815C10.8035 20.1653 11.3417 20.9675 12.0218 21.6408L9.45923 24.1197Z"/><path fill="#FECB16" d="M72.9715 23.5707H70.3917L67.2961 14.8389L64.3036 23.5707H61.7239L57.2266 9.16064H60.5286L63.1685 17.8496L66.0578 9.16064H68.6375L71.544 17.7809L74.0635 9.20353H77.2452L72.9715 23.5707Z"/><path fill="#FECB16" d="M78.5781 9.16064H89.6193V12.1456H81.777V14.8217H89.1034V17.7037H81.777V20.5857H89.8085V23.5707H78.5781V9.16064Z"/><path fill="#FECB16" d="M91.4335 13.2092C91.4335 10.9277 93.6091 8.82619 97.0315 8.82619C98.1182 8.79188 99.1975 9.01496 100.181 9.47716C101.165 9.93936 102.024 10.6275 102.69 11.4852L100.54 13.5438C100.093 13.0159 99.5378 12.5897 98.9119 12.2938C98.2859 11.9979 97.6037 11.8392 96.9111 11.8283C95.4235 11.8283 94.7441 12.3687 94.7441 13.1921C94.7441 15.3965 102.793 14.1356 102.793 19.3421C102.793 21.9153 100.437 23.9138 97.3239 23.9138C93.8326 23.9138 91.6227 22.267 90.6338 20.3971L92.9641 18.4586C93.4043 19.2071 94.0322 19.8284 94.786 20.2615C95.5399 20.6947 96.3937 20.9247 97.2637 20.9289C98.8717 20.9289 99.5166 20.3113 99.5166 19.5908C99.4908 17.0605 91.4335 18.4415 91.4335 13.2092Z"/><path fill="#FECB16" d="M103.403 9.16064H115.872V12.1456H111.228V23.5707H108.03V12.1456H103.403V9.16064Z"/><path fill="#199E23" d="M121.548 13.2092C121.548 10.9276 123.715 8.82617 127.146 8.82617C128.231 8.79323 129.308 9.01698 130.29 9.47913C131.272 9.94127 132.131 10.6287 132.795 11.4852L130.654 13.5437C130.205 13.0161 129.648 12.5901 129.021 12.2943C128.394 11.9985 127.71 11.8396 127.017 11.8283C125.529 11.8283 124.85 12.3686 124.85 13.1921C124.85 15.3965 132.898 14.1356 132.898 19.3421C132.898 21.9153 130.551 23.9138 127.429 23.9138C123.938 23.9138 121.737 22.267 120.739 20.3971L123.078 18.4586C123.517 19.2082 124.145 19.8305 124.899 20.2638C125.653 20.6971 126.507 20.9263 127.378 20.9289C128.986 20.9289 129.622 20.3113 129.622 19.5908C129.596 17.0605 121.548 18.4414 121.548 13.2092Z"/><path fill="#199E23" d="M141.584 8.91188C142.567 8.8979 143.544 9.0814 144.455 9.45148C145.366 9.82155 146.193 10.3706 146.887 11.066C147.581 11.7615 148.128 12.589 148.494 13.4994C148.861 14.4099 149.041 15.3846 149.022 16.3656C149.056 17.3618 148.889 18.3545 148.53 19.2848C148.171 20.215 147.628 21.0638 146.934 21.7804C146.24 22.4971 145.408 23.067 144.488 23.4562C143.568 23.8455 142.579 24.0461 141.58 24.0461C140.58 24.0461 139.591 23.8455 138.671 23.4562C137.752 23.067 136.92 22.4971 136.225 21.7804C135.531 21.0638 134.988 20.215 134.629 19.2848C134.271 18.3545 134.103 17.3618 134.137 16.3656C134.126 15.3858 134.31 14.4135 134.68 13.5057C135.05 12.5979 135.598 11.7728 136.291 11.0787C136.985 10.3846 137.81 9.83543 138.719 9.46337C139.627 9.09131 140.602 8.90382 141.584 8.91188ZM141.584 20.7315C142.148 20.7365 142.707 20.6249 143.226 20.4038C143.744 20.1826 144.211 19.8567 144.598 19.4465C144.984 19.0364 145.281 18.5508 145.469 18.0206C145.658 17.4904 145.735 16.9269 145.694 16.3656C145.731 15.8038 145.651 15.2404 145.461 14.7104C145.27 14.1804 144.973 13.695 144.587 13.2842C144.201 12.8735 143.734 12.546 143.216 12.3222C142.698 12.0984 142.14 11.9829 141.575 11.9829C141.011 11.9829 140.452 12.0984 139.934 12.3222C139.416 12.546 138.95 12.8735 138.564 13.2842C138.178 13.695 137.88 14.1804 137.69 14.7104C137.499 15.2404 137.42 15.8038 137.456 16.3656C137.426 16.926 137.51 17.4867 137.704 18.0136C137.897 18.5405 138.196 19.0228 138.582 19.431C138.968 19.8393 139.433 20.1651 139.949 20.3887C140.465 20.6122 141.021 20.7289 141.584 20.7315Z"/><path fill="#199E23" d="M150.974 9.16064H154.172V20.5857H161.98V23.5707H150.974V9.16064Z"/><path fill="#199E23" d="M168.438 9.16064H170.812L177.141 23.5707H173.796L172.618 20.8945H166.598L165.42 23.5707H162.118L168.438 9.16064ZM167.682 18.1927H171.44L169.582 13.9039L167.682 18.1927Z"/><path fill="#199E23" d="M178.405 23.5707V9.16064H184.244C188.845 9.16064 190.091 11.4594 190.091 13.8525C190.099 14.7578 189.833 15.6445 189.328 16.3971C188.824 17.1497 188.104 17.7335 187.262 18.0726L191.287 23.5707H187.46L183.926 18.6473H181.639V23.5707H178.405ZM181.604 12.1456V15.6623H184.304C185.878 15.6623 186.764 15.0019 186.764 13.8525C186.764 12.7031 186.23 12.137 184.184 12.137L181.604 12.1456Z"/><path fill="#DE3B3C" d="M57.2012 28.7086H67.5888V31.2046H63.7193V40.7256H61.0536V31.2046H57.2012V28.7086Z"/><path fill="#DE3B3C" d="M68.7061 28.7086H77.9071V31.2046H71.3718V33.4519H77.4771V35.8536H71.3718V38.2553H78.0618V40.7427H68.7061V28.7086Z"/><path fill="#DE3B3C" d="M90.5479 38.4611C89.9568 39.2631 89.177 39.9079 88.2773 40.3387C87.3776 40.7694 86.3856 40.973 85.3885 40.9314C81.6393 40.9314 79.2315 38.444 79.2315 34.7214C79.2015 33.8974 79.3419 33.0761 79.644 32.3086C79.9462 31.5412 80.4035 30.844 80.9876 30.2606C81.5717 29.6772 82.27 29.22 83.039 28.9176C83.808 28.6151 84.6312 28.4739 85.4572 28.5027C86.3953 28.4514 87.3315 28.6339 88.1812 29.0337C89.0309 29.4335 89.7674 30.0381 90.3243 30.7929L88.5701 32.4398C88.2166 32.0219 87.7773 31.6846 87.2817 31.4508C86.7862 31.2169 86.2461 31.0921 85.698 31.0845C85.2114 31.0544 84.7238 31.1279 84.2678 31.3C83.8118 31.4721 83.3976 31.7389 83.0529 32.0829C82.7081 32.4268 82.4405 32.8399 82.268 33.2948C82.0954 33.7496 82.0218 34.2359 82.052 34.7214C82.029 35.2021 82.1064 35.6824 82.2793 36.1317C82.4523 36.581 82.7169 36.9896 83.0565 37.3316C83.396 37.6735 83.8031 37.9413 84.2519 38.1181C84.7007 38.2948 85.1815 38.3766 85.6636 38.3582C86.3029 38.3662 86.9353 38.2263 87.5112 37.9495C88.0871 37.6727 88.5908 37.2665 88.9829 36.7628L90.5479 38.4611Z"/><path fill="#DE3B3C" d="M99.8522 35.9222H94.5036V40.7256H91.8379V28.7172H94.5036V33.4519H99.8522V28.7086H102.518V40.717H99.8522V35.9222Z"/><path fill="#DE3B3C" d="M113.181 40.7256L107.351 33.6063V40.7256H104.771V28.7172H106.818L112.648 35.8536V28.7086H115.228V40.717L113.181 40.7256Z"/><path fill="#DE3B3C" d="M123.087 28.5027C124.321 28.4976 125.529 28.858 126.557 29.5382C127.586 30.2184 128.389 31.1878 128.865 32.3237C129.341 33.4595 129.468 34.7107 129.23 35.9187C128.993 37.1267 128.401 38.2371 127.53 39.1094C126.659 39.9816 125.548 40.5765 124.338 40.8185C123.128 41.0605 121.873 40.9389 120.733 40.469C119.592 39.9991 118.617 39.2021 117.931 38.1789C117.244 37.1557 116.878 35.9523 116.878 34.7213C116.862 33.9024 117.011 33.0886 117.317 32.3285C117.623 31.5684 118.079 30.8775 118.659 30.2971C119.238 29.7167 119.929 29.2587 120.69 28.9504C121.45 28.6421 122.266 28.4899 123.087 28.5027ZM123.087 38.3581C123.556 38.359 124.021 38.2639 124.452 38.0788C124.884 37.8936 125.273 37.6223 125.595 37.2816C125.917 36.9409 126.166 36.5379 126.326 36.0976C126.486 35.6573 126.554 35.1889 126.526 34.7213C126.526 33.8114 126.164 32.9387 125.519 32.2953C124.874 31.6518 123.999 31.2904 123.087 31.2904C122.174 31.2904 121.3 31.6518 120.654 32.2953C120.009 32.9387 119.647 33.8114 119.647 34.7213C119.619 35.1889 119.687 35.6573 119.847 36.0976C120.007 36.5379 120.256 36.9409 120.579 37.2816C120.901 37.6223 121.29 37.8936 121.721 38.0788C122.152 38.2639 122.617 38.359 123.087 38.3581Z"/><path fill="#DE3B3C" d="M130.912 28.7086H133.578V38.2381H140.079V40.7256H130.912V28.7086Z"/><path fill="#DE3B3C" d="M146.356 28.5027C147.59 28.4942 148.8 28.8517 149.831 29.5298C150.862 30.2079 151.667 31.1762 152.146 32.3117C152.624 33.4472 152.754 34.6989 152.518 35.908C152.283 37.1171 151.692 38.2292 150.822 39.1032C149.952 39.9771 148.841 40.5737 147.631 40.8171C146.42 41.0606 145.165 40.9399 144.023 40.4706C142.881 40.0012 141.905 39.2042 141.218 38.1806C140.531 37.1571 140.164 35.9531 140.164 34.7213C140.148 33.9039 140.297 33.0915 140.602 32.3325C140.907 31.5736 141.361 30.8835 141.939 30.3034C142.516 29.7232 143.205 29.2649 143.964 28.9555C144.723 28.6462 145.536 28.4922 146.356 28.5027ZM146.356 38.3581C146.825 38.359 147.29 38.2639 147.721 38.0787C148.153 37.8936 148.542 37.6223 148.864 37.2816C149.186 36.9409 149.435 36.5379 149.595 36.0976C149.755 35.6573 149.823 35.1889 149.795 34.7213C149.795 33.8114 149.433 32.9387 148.788 32.2953C148.143 31.6518 147.268 31.2904 146.356 31.2904C145.443 31.2904 144.568 31.6518 143.923 32.2953C143.278 32.9387 142.916 33.8114 142.916 34.7213C142.888 35.1889 142.956 35.6573 143.116 36.0976C143.276 36.5379 143.525 36.9409 143.847 37.2816C144.17 37.6223 144.558 37.8936 144.99 38.0787C145.421 38.2639 145.886 38.359 146.356 38.3581Z"/><path fill="#DE3B3C" d="M159.341 34.0008H164.947V38.8556C164.328 39.5189 163.577 40.0461 162.742 40.4035C161.907 40.7609 161.006 40.9407 160.097 40.9314C156.314 40.9314 153.579 38.4439 153.579 34.7213C153.549 33.8973 153.69 33.076 153.992 32.3086C154.294 31.5411 154.751 30.844 155.335 30.2605C155.919 29.6771 156.618 29.2199 157.387 28.9175C158.156 28.6151 158.979 28.4739 159.805 28.5027C161.869 28.5027 163.829 29.3604 164.672 30.6642L162.832 32.3196C162.463 31.9152 162.01 31.5954 161.506 31.3822C161.001 31.1689 160.456 31.0674 159.908 31.0845C159.424 31.0499 158.939 31.1209 158.485 31.2927C158.032 31.4644 157.621 31.7327 157.282 32.079C156.943 32.4252 156.684 32.841 156.523 33.2973C156.361 33.7537 156.302 34.2396 156.348 34.7213C156.348 37.0715 157.93 38.3581 160.114 38.3581C160.924 38.3687 161.717 38.129 162.385 37.6719V36.4025H159.341V34.0008Z"/><path fill="#DE3B3C" d="M166.822 28.7086H169.488V40.717H166.822V28.7086Z"/><path fill="#DE3B3C" d="M171.826 28.7086H181.027V31.2046H174.492V33.4519H180.58V35.8536H174.475V38.2553H181.165V40.7427H171.826V28.7086Z"/><path fill="#DE3B3C" d="M182.541 32.0967C182.541 30.1925 184.347 28.4341 187.202 28.4341C188.108 28.402 189.009 28.5869 189.828 28.9734C190.648 29.3599 191.363 29.9368 191.914 30.6557L190.125 32.3712C189.753 31.9297 189.29 31.5727 188.768 31.3242C188.246 31.0757 187.677 30.9413 187.098 30.9301C185.86 30.9301 185.293 31.3762 185.293 32.0624C185.293 33.8979 192 32.8515 192 37.2088C192 39.3875 190.039 41.0172 187.442 41.0172C184.536 41.0172 182.696 39.6448 181.87 38.0837L183.814 36.4711C184.178 37.092 184.697 37.6081 185.321 37.9689C185.945 38.3297 186.652 38.5229 187.374 38.5297C188.715 38.5297 189.248 38.0151 189.248 37.4147C189.248 35.3046 182.541 36.454 182.541 32.0967Z"/><path fill="#199E23" d="M34.5511 40.94H20.5604C18.8173 40.9377 17.1463 40.2454 15.9145 39.015C14.6826 37.7847 13.9908 36.117 13.9908 34.3782V27.8079H3.67188L27.5601 3.99707L51.4311 27.8079H41.1122V34.3782C41.1122 36.1156 40.4215 37.782 39.1916 39.012C37.9616 40.2421 36.2928 40.9354 34.5511 40.94ZM12.4601 24.1883H17.6196V34.3782C17.6196 35.1548 17.9282 35.8996 18.4779 36.4495C19.0276 36.9994 19.7734 37.3094 20.5518 37.3117H34.5511C35.3296 37.3094 36.0754 36.9994 36.6251 36.4495C37.1748 35.8996 37.4834 35.1548 37.4834 34.3782V24.1797H42.6429L27.5601 9.12636L12.4601 24.1883Z"/><path fill="#DE3B3C" d="M27.8606 34.9444C26.2466 34.9421 24.6994 34.3016 23.5581 33.1632C22.4169 32.0248 21.7747 30.4815 21.7725 28.8716V24.094H33.9487V28.8716C33.9465 30.4815 33.3043 32.0248 32.1631 33.1632C31.0218 34.3016 29.4746 34.9421 27.8606 34.9444ZM25.4099 27.7222V28.8716C25.4099 29.5199 25.6681 30.1417 26.1277 30.6002C26.5873 31.0586 27.2106 31.3162 27.8606 31.3162C28.5106 31.3162 29.1339 31.0586 29.5935 30.6002C30.0531 30.1417 30.3113 29.5199 30.3113 28.8716V27.7222H25.4099Z"/><path fill="#DE3B3C" d="M23.7422 22.447V18.8703C23.7422 18.4847 23.8957 18.1149 24.1691 17.8422C24.4424 17.5696 24.8132 17.4164 25.1997 17.4164C25.5863 17.4164 25.957 17.5696 26.2304 17.8422C26.5037 18.1149 26.6573 18.4847 26.6573 18.8703V22.4899L23.7422 22.447Z"/><path fill="#DE3B3C" d="M28.6006 22.447V18.8702C28.6006 18.6799 28.6382 18.4914 28.7112 18.3155C28.7842 18.1396 28.8913 17.9798 29.0262 17.8452C29.1612 17.7106 29.3214 17.6038 29.4977 17.531C29.674 17.4581 29.863 17.4207 30.0538 17.4207C30.2447 17.4207 30.4336 17.4581 30.61 17.531C30.7863 17.6038 30.9465 17.7106 31.0814 17.8452C31.2164 17.9798 31.3234 18.1396 31.3965 18.3155C31.4695 18.4914 31.5071 18.6799 31.5071 18.8702V22.4899L28.6006 22.447Z"/><path fill="#FECB16" d="M12.1934 0H14.8591L13.5262 4.62322L12.1934 0Z"/><path fill="#FECB16" d="M0 12.1627V14.8217L4.6349 13.4922L0 12.1627Z"/><path fill="#FECB16" d="M4.91035 3.00208L3.01855 4.88053L7.2407 7.21358L4.91035 3.00208Z"/><path fill="#FECB16" d="M23.304 1.51819L25.1958 3.40522L20.9736 5.72969L23.304 1.51819Z"/><path fill="#FECB16" d="M1.90039 22.8674L3.78359 24.7458L6.12253 20.5343L1.90039 22.8674Z"/></svg>