<svg xmlns="http://www.w3.org/2000/svg" width="2496" height="256" fill="none" viewBox="0 0 2496 256"><g clip-path="url(#clip0)"><path fill="url(#paint0_radial)" d="M128 252C182.336 252 212.542 252 232.271 232.271C252 212.542 252 182.336 252 128C252 73.6639 252 43.4577 232.271 23.7288C212.542 4 182.336 4 128 4C73.6639 4 43.4577 4 23.7288 23.7288C4 43.4577 4 73.6639 4 128C4 182.336 4 212.542 23.7288 232.271C43.4577 252 73.6639 252 128 252Z"/><path fill="url(#paint1_linear)" d="M128 252C182.336 252 212.542 252 232.271 232.271C252 212.542 252 182.336 252 128C252 73.6639 252 43.4577 232.271 23.7288C212.542 4 182.336 4 128 4C73.6639 4 43.4577 4 23.7288 23.7288C4 43.4577 4 73.6639 4 128C4 182.336 4 212.542 23.7288 232.271C43.4577 252 73.6639 252 128 252Z"/><g filter="url(#filter0_ii)"><path fill="#43BBFF" d="M126.527 134.821C126.523 133.822 126.022 132.891 125.191 132.337L114.337 125.099C112.337 123.765 109.659 125.207 109.672 127.611L109.718 136.024C109.723 137.02 110.223 137.949 111.052 138.503L121.895 145.742C123.893 147.076 126.571 145.638 126.561 143.235L126.527 134.821Z"/><path fill="#43BBFF" d="M107.641 122.212C107.636 121.216 107.136 120.287 106.307 119.734L95.4639 112.494C93.4658 111.16 90.7883 112.599 90.7981 115.001L90.8322 123.415C90.8363 124.414 91.3369 125.345 92.1678 125.899L103.022 133.137C105.022 134.471 107.7 133.029 107.687 130.625L107.641 122.212Z"/><path fill="#43BBFF" d="M88.7535 109.608C88.7481 108.611 88.2482 107.682 87.4194 107.129L76.5762 99.8893C74.5781 98.5552 71.9007 99.9939 71.9104 102.396L71.9445 110.793C71.9486 111.791 72.4484 112.721 73.2781 113.275L84.1326 120.526C86.1322 121.862 88.812 120.42 88.799 118.015L88.7535 109.608Z"/><path fill="#43BBFF" d="M69.8659 96.9841C69.8605 95.9876 69.3606 95.0587 68.5318 94.5054L57.6963 87.2707C55.6967 85.9356 53.0175 87.3776 53.0305 89.7819L53.076 98.1908C53.0814 99.1873 53.5813 100.116 54.4101 100.67L65.2456 107.904C67.2452 109.239 69.9244 107.797 69.9114 105.393L69.8659 96.9841Z"/><path fill="#43BBFF" d="M126.613 153.184C126.608 152.187 126.108 151.258 125.279 150.705L114.436 143.465C112.438 142.131 109.76 143.57 109.77 145.972L109.804 154.387C109.808 155.385 110.309 156.316 111.14 156.87L121.994 164.109C123.994 165.442 126.671 164 126.658 161.596L126.613 153.184Z"/><path fill="#43BBFF" d="M107.726 140.58C107.721 139.583 107.221 138.655 106.392 138.101L95.5568 130.867C93.5571 129.531 90.878 130.973 90.891 133.378L90.9364 141.787C90.9418 142.783 91.4417 143.712 92.2705 144.265L103.106 151.5C105.106 152.835 107.785 151.393 107.772 148.989L107.726 140.58Z"/><path fill="#43BBFF" d="M88.8568 127.979C88.8528 126.98 88.3521 126.049 87.5212 125.495L76.6667 118.257C74.667 116.923 71.9894 118.366 72.0024 120.769L72.0479 129.182C72.0533 130.178 72.5532 131.107 73.382 131.661L84.2251 138.9C86.2232 140.234 88.9007 138.796 88.8909 136.393L88.8568 127.979Z"/><path fill="#43BBFF" d="M69.9692 115.374C69.9651 114.376 69.4644 113.445 68.6336 112.89L57.7792 105.652C55.7794 104.319 53.1018 105.761 53.1148 108.164L53.1602 116.559C53.1656 117.555 53.6647 118.483 54.4924 119.037L65.3355 126.289C67.3334 127.625 70.013 126.187 70.0033 123.783L69.9692 115.374Z"/><path fill="#43BBFF" d="M126.697 171.568C126.692 170.573 126.193 169.644 125.365 169.091L114.53 161.844C112.53 160.507 109.849 161.948 109.862 164.354L109.907 172.757C109.913 173.754 110.413 174.683 111.241 175.236L122.077 182.471C124.077 183.806 126.756 182.364 126.743 179.959L126.697 171.568Z"/><path fill="#43BBFF" d="M107.83 158.95C107.826 157.951 107.325 157.02 106.494 156.466L95.6397 149.228C93.6399 147.894 90.9623 149.337 90.9753 151.74L91.0208 160.153C91.0262 161.15 91.5261 162.078 92.3549 162.632L103.198 169.871C105.196 171.206 107.874 169.767 107.864 167.364L107.83 158.95Z"/><path fill="#43BBFF" d="M88.9431 146.342C88.9377 145.345 88.4378 144.416 87.609 143.863L76.7659 136.623C74.7678 135.289 72.0903 136.728 72.1 139.13L72.1342 147.545C72.1382 148.543 72.6389 149.474 73.4697 150.028L84.3242 157.267C86.324 158.6 89.0016 157.158 88.9886 154.754L88.9431 146.342Z"/><path fill="#43BBFF" d="M70.0555 133.738C70.0501 132.741 69.5502 131.813 68.7214 131.259L57.8859 124.025C55.8863 122.689 53.2071 124.131 53.2201 126.536L53.2656 134.945C53.2709 135.941 53.7709 136.87 54.5997 137.423L65.4352 144.658C67.4348 145.993 70.114 144.551 70.101 142.147L70.0555 133.738Z"/><path fill="#3733FF" d="M129.837 134.856C129.838 133.859 130.335 132.927 131.163 132.371L141.951 125.116C143.946 123.775 146.629 125.206 146.625 127.609L146.614 136.041C146.613 137.038 146.116 137.97 145.288 138.526L134.5 145.781C132.505 147.123 129.822 145.691 129.826 143.288L129.837 134.856Z"/><path fill="#3733FF" d="M129.815 153.26C129.816 152.264 130.313 151.333 131.14 150.776L141.914 143.521C143.907 142.179 146.59 143.607 146.59 146.009L146.59 154.444C146.59 155.442 146.093 156.376 145.264 156.933L134.478 164.187C132.484 165.528 129.8 164.097 129.804 161.693L129.815 153.26Z"/><path fill="#3733FF" d="M129.794 171.668C129.795 170.67 130.292 169.739 131.12 169.182L141.908 161.927C143.903 160.586 146.586 162.017 146.582 164.421L146.571 172.854C146.57 173.85 146.074 174.781 145.247 175.338L134.459 182.605C132.464 183.949 129.779 182.518 129.783 180.113L129.794 171.668Z"/><path fill="#3733FF" d="M148.621 122.198C148.621 121.199 149.118 120.266 149.946 119.708L160.733 112.455C162.727 111.114 165.41 112.545 165.407 114.948L165.395 123.4C165.394 124.397 164.898 125.328 164.071 125.885L153.296 133.14C151.303 134.482 148.621 133.054 148.621 130.651L148.621 122.198Z"/><path fill="#3733FF" d="M148.599 140.62C148.599 139.622 149.096 138.689 149.923 138.132L160.71 130.866C162.704 129.522 165.389 130.954 165.386 133.358L165.374 141.805C165.373 142.801 164.877 143.732 164.05 144.289L153.275 151.544C151.282 152.886 148.599 151.458 148.599 149.056L148.599 140.62Z"/><path fill="#3733FF" d="M148.597 159.022C148.599 158.026 149.094 157.095 149.92 156.539L160.687 149.276C162.681 147.931 165.368 149.362 165.365 151.767L165.353 160.21C165.352 161.207 164.856 162.138 164.029 162.694L153.262 169.944C151.267 171.287 148.583 169.856 148.586 167.452L148.597 159.022Z"/><path fill="#3733FF" d="M167.422 109.552C167.423 108.555 167.92 107.623 168.748 107.067L179.536 99.8115C181.53 98.4703 184.213 99.9016 184.21 102.305L184.199 110.737C184.197 111.734 183.701 112.665 182.873 113.222L172.085 120.477C170.09 121.818 167.407 120.387 167.41 117.984L167.422 109.552Z"/><path fill="#3733FF" d="M167.401 127.958C167.402 126.961 167.899 126.029 168.727 125.473L179.515 118.218C181.509 116.876 184.192 118.308 184.189 120.711L184.178 129.144C184.176 130.141 183.68 131.071 182.854 131.628L172.065 138.896C170.071 140.239 167.386 138.808 167.389 136.404L167.401 127.958Z"/><path fill="#3733FF" d="M167.38 146.363C167.381 145.366 167.878 144.435 168.706 143.878L179.494 136.623C181.488 135.282 184.171 136.713 184.168 139.116L184.157 147.549C184.155 148.546 183.659 149.477 182.833 150.034L172.044 157.301C170.05 158.644 167.365 157.213 167.368 154.809L167.38 146.363Z"/><path fill="#3733FF" d="M186.225 96.8879C186.226 95.8912 186.723 94.9602 187.55 94.4035L198.324 87.1483C200.317 85.8065 203 87.2344 203 89.6367L203 98.0902C203 99.089 202.503 100.022 201.674 100.58L190.888 107.833C188.894 109.175 186.211 107.743 186.214 105.34L186.225 96.8879Z"/><path fill="#3733FF" d="M186.203 115.293C186.204 114.297 186.701 113.366 187.528 112.809L198.302 105.554C200.295 104.212 202.978 105.64 202.978 108.042L202.978 116.496C202.978 117.494 202.481 118.428 201.652 118.985L190.866 126.239C188.872 127.58 186.188 126.149 186.192 123.745L186.203 115.293Z"/><path fill="#3733FF" d="M186.183 133.717C186.184 132.722 186.68 131.791 187.506 131.234L198.28 123.967C200.273 122.623 202.958 124.05 202.958 126.454L202.958 134.902C202.958 135.901 202.461 136.834 201.632 137.391L190.846 144.645C188.851 145.986 186.168 144.555 186.172 142.152L186.183 133.717Z"/><g style="mix-blend-mode:overlay" opacity=".25"><path fill="url(#paint2_linear)" d="M126.527 134.821C126.523 133.822 126.022 132.891 125.191 132.337L114.337 125.099C112.337 123.765 109.659 125.207 109.672 127.611L109.718 136.024C109.723 137.02 110.223 137.949 111.052 138.503L121.895 145.742C123.893 147.076 126.571 145.638 126.561 143.235L126.527 134.821Z" style="mix-blend-mode:overlay"/><path fill="url(#paint3_linear)" d="M107.641 122.213C107.636 121.216 107.136 120.287 106.307 119.734L95.4639 112.494C93.4658 111.16 90.7884 112.599 90.7981 115.001L90.8322 123.415C90.8363 124.414 91.337 125.345 92.1678 125.899L103.022 133.137C105.022 134.471 107.7 133.029 107.687 130.625L107.641 122.213Z" style="mix-blend-mode:overlay"/><path fill="url(#paint4_linear)" d="M88.7535 109.608C88.7481 108.611 88.2482 107.682 87.4194 107.129L76.5762 99.8893C74.5781 98.5552 71.9007 99.9939 71.9104 102.396L71.9445 110.793C71.9486 111.791 72.4484 112.721 73.2781 113.275L84.1326 120.526C86.1322 121.862 88.812 120.42 88.799 118.015L88.7535 109.608Z" style="mix-blend-mode:overlay"/><path fill="url(#paint5_linear)" d="M69.8659 96.9841C69.8605 95.9876 69.3606 95.0587 68.5318 94.5054L57.6963 87.2707C55.6967 85.9356 53.0175 87.3776 53.0305 89.7819L53.076 98.1908C53.0814 99.1873 53.5813 100.116 54.4101 100.67L65.2456 107.904C67.2452 109.239 69.9244 107.797 69.9114 105.393L69.8659 96.9841Z" style="mix-blend-mode:overlay"/><path fill="url(#paint6_linear)" d="M126.613 153.184C126.608 152.187 126.108 151.258 125.279 150.705L114.436 143.465C112.438 142.131 109.76 143.57 109.77 145.972L109.804 154.387C109.808 155.385 110.309 156.316 111.14 156.87L121.994 164.109C123.994 165.442 126.672 164 126.659 161.596L126.613 153.184Z" style="mix-blend-mode:overlay"/><path fill="url(#paint7_linear)" d="M107.726 140.58C107.721 139.583 107.221 138.655 106.392 138.101L95.5568 130.867C93.5571 129.531 90.878 130.973 90.891 133.378L90.9364 141.787C90.9418 142.783 91.4417 143.712 92.2705 144.265L103.106 151.5C105.106 152.835 107.785 151.393 107.772 148.989L107.726 140.58Z" style="mix-blend-mode:overlay"/><path fill="url(#paint8_linear)" d="M88.8568 127.979C88.8528 126.98 88.3521 126.049 87.5213 125.495L76.6668 118.257C74.667 116.923 71.9894 118.366 72.0024 120.769L72.0479 129.182C72.0533 130.178 72.5532 131.107 73.382 131.661L84.2251 138.9C86.2232 140.234 88.9007 138.796 88.8909 136.393L88.8568 127.979Z" style="mix-blend-mode:overlay"/><path fill="url(#paint9_linear)" d="M69.9692 115.374C69.9651 114.376 69.4644 113.445 68.6336 112.89L57.7792 105.652C55.7794 104.319 53.1018 105.761 53.1148 108.164L53.1602 116.559C53.1656 117.555 53.6647 118.483 54.4924 119.037L65.3355 126.289C67.3334 127.625 70.013 126.187 70.0033 123.783L69.9692 115.374Z" style="mix-blend-mode:overlay"/><path fill="url(#paint10_linear)" d="M126.697 171.568C126.692 170.573 126.193 169.644 125.365 169.091L114.53 161.844C112.53 160.507 109.849 161.948 109.862 164.354L109.907 172.757C109.913 173.754 110.413 174.683 111.241 175.236L122.077 182.471C124.077 183.806 126.756 182.364 126.743 179.959L126.697 171.568Z" style="mix-blend-mode:overlay"/><path fill="url(#paint11_linear)" d="M107.83 158.95C107.826 157.951 107.325 157.02 106.494 156.466L95.6397 149.228C93.6399 147.895 90.9623 149.337 90.9753 151.74L91.0208 160.153C91.0262 161.15 91.5261 162.078 92.3549 162.632L103.198 169.871C105.196 171.206 107.874 169.767 107.864 167.364L107.83 158.95Z" style="mix-blend-mode:overlay"/><path fill="url(#paint12_linear)" d="M88.9431 146.342C88.9377 145.345 88.4378 144.416 87.609 143.863L76.7659 136.623C74.7678 135.289 72.0903 136.728 72.1 139.13L72.1342 147.545C72.1382 148.543 72.6389 149.474 73.4697 150.028L84.3242 157.267C86.324 158.6 89.0016 157.158 88.9886 154.754L88.9431 146.342Z" style="mix-blend-mode:overlay"/><path fill="url(#paint13_linear)" d="M70.0555 133.738C70.0501 132.741 69.5502 131.813 68.7214 131.259L57.8859 124.025C55.8863 122.689 53.2071 124.131 53.2201 126.536L53.2656 134.945C53.2709 135.941 53.7708 136.87 54.5997 137.423L65.4352 144.658C67.4348 145.993 70.114 144.551 70.101 142.147L70.0555 133.738Z" style="mix-blend-mode:overlay"/><path fill="url(#paint14_linear)" d="M129.837 134.856C129.838 133.859 130.335 132.927 131.163 132.371L141.951 125.116C143.946 123.775 146.629 125.206 146.625 127.609L146.614 136.041C146.613 137.038 146.116 137.97 145.288 138.526L134.5 145.781C132.505 147.123 129.822 145.691 129.826 143.288L129.837 134.856Z" style="mix-blend-mode:overlay"/><path fill="url(#paint15_linear)" d="M129.815 153.26C129.816 152.264 130.313 151.333 131.14 150.776L141.914 143.521C143.907 142.179 146.59 143.607 146.59 146.009V154.444C146.59 155.442 146.093 156.376 145.264 156.933L134.478 164.187C132.483 165.528 129.8 164.097 129.804 161.693L129.815 153.26Z" style="mix-blend-mode:overlay"/><path fill="url(#paint16_linear)" d="M129.794 171.668C129.795 170.67 130.292 169.739 131.12 169.182L141.908 161.927C143.903 160.586 146.586 162.017 146.582 164.421L146.571 172.854C146.57 173.85 146.074 174.781 145.247 175.338L134.459 182.605C132.464 183.949 129.779 182.518 129.783 180.113L129.794 171.668Z" style="mix-blend-mode:overlay"/><path fill="url(#paint17_linear)" d="M148.621 122.198C148.621 121.199 149.118 120.266 149.946 119.709L160.733 112.455C162.727 111.114 165.41 112.545 165.407 114.948L165.395 123.4C165.394 124.397 164.898 125.328 164.071 125.885L153.296 133.14C151.303 134.482 148.621 133.054 148.621 130.651V122.198Z" style="mix-blend-mode:overlay"/><path fill="url(#paint18_linear)" d="M148.599 140.62C148.599 139.622 149.096 138.69 149.923 138.132L160.71 130.866C162.704 129.522 165.389 130.954 165.386 133.358L165.374 141.805C165.373 142.801 164.877 143.732 164.05 144.289L153.275 151.544C151.282 152.886 148.599 151.458 148.599 149.056V140.62Z" style="mix-blend-mode:overlay"/><path fill="url(#paint19_linear)" d="M148.597 159.022C148.599 158.026 149.094 157.095 149.92 156.539L160.687 149.276C162.681 147.931 165.368 149.362 165.365 151.767L165.353 160.21C165.352 161.207 164.856 162.138 164.029 162.694L153.262 169.944C151.267 171.287 148.583 169.856 148.586 167.452L148.597 159.022Z" style="mix-blend-mode:overlay"/><path fill="url(#paint20_linear)" d="M167.422 109.552C167.423 108.555 167.92 107.623 168.748 107.067L179.536 99.8115C181.53 98.4703 184.213 99.9016 184.21 102.305L184.199 110.737C184.197 111.734 183.7 112.665 182.873 113.222L172.085 120.477C170.09 121.818 167.407 120.387 167.41 117.984L167.422 109.552Z" style="mix-blend-mode:overlay"/><path fill="url(#paint21_linear)" d="M167.401 127.958C167.402 126.961 167.899 126.029 168.727 125.473L179.515 118.218C181.509 116.876 184.192 118.308 184.189 120.711L184.178 129.144C184.176 130.141 183.68 131.071 182.854 131.628L172.065 138.896C170.071 140.239 167.386 138.808 167.389 136.404L167.401 127.958Z" style="mix-blend-mode:overlay"/><path fill="url(#paint22_linear)" d="M167.38 146.363C167.381 145.366 167.878 144.435 168.705 143.878L179.494 136.623C181.488 135.282 184.171 136.713 184.168 139.116L184.157 147.549C184.155 148.546 183.659 149.477 182.833 150.034L172.044 157.301C170.05 158.644 167.365 157.213 167.368 154.809L167.38 146.363Z" style="mix-blend-mode:overlay"/><path fill="url(#paint23_linear)" d="M186.225 96.8879C186.226 95.8912 186.723 94.9602 187.55 94.4035L198.324 87.1483C200.317 85.8065 203 87.2344 203 89.6368V98.0903C203 99.089 202.503 100.022 201.674 100.58L190.888 107.833C188.894 109.175 186.21 107.743 186.214 105.34L186.225 96.8879Z" style="mix-blend-mode:overlay"/><path fill="url(#paint24_linear)" d="M186.203 115.293C186.204 114.297 186.701 113.366 187.528 112.809L198.302 105.554C200.295 104.212 202.978 105.64 202.978 108.042V116.496C202.978 117.494 202.481 118.428 201.652 118.985L190.866 126.239C188.872 127.58 186.188 126.149 186.192 123.745L186.203 115.293Z" style="mix-blend-mode:overlay"/><path fill="url(#paint25_linear)" d="M186.183 133.717C186.184 132.722 186.68 131.791 187.505 131.234L198.28 123.967C200.273 122.623 202.958 124.05 202.958 126.454V134.902C202.958 135.901 202.461 136.834 201.632 137.391L190.846 144.645C188.851 145.986 186.168 144.555 186.172 142.152L186.183 133.717Z" style="mix-blend-mode:overlay"/></g></g><g style="mix-blend-mode:overlay"><path fill="url(#paint26_linear)" d="M128 252C182.336 252 212.542 252 232.271 232.271C252 212.542 252 182.336 252 128C252 73.6639 252 43.4577 232.271 23.7288C212.542 4 182.336 4 128 4C73.6639 4 43.4577 4 23.7288 23.7288C4 43.4577 4 73.6639 4 128C4 182.336 4 212.542 23.7288 232.271C43.4577 252 73.6639 252 128 252Z"/></g><path fill="url(#paint27_linear)" d="M128 252C182.336 252 212.542 252 232.271 232.271C252 212.542 252 182.336 252 128C252 73.6639 252 43.4577 232.271 23.7288C212.542 4 182.336 4 128 4C73.6639 4 43.4577 4 23.7288 23.7288C4 43.4577 4 73.6639 4 128C4 182.336 4 212.542 23.7288 232.271C43.4577 252 73.6639 252 128 252Z"/><g style="mix-blend-mode:overlay" filter="url(#filter1_f)"><path stroke="url(#paint28_linear)" stroke-width="3" d="M231.211 231.211C221.655 240.766 209.521 245.611 192.896 248.05C176.219 250.496 155.211 250.5 128 250.5C100.789 250.5 79.7809 250.496 63.1044 248.05C46.4786 245.611 34.345 240.766 24.7895 231.211C15.234 221.655 10.3893 209.521 7.95022 192.896C5.50366 176.219 5.5 155.211 5.5 128C5.5 100.789 5.50366 79.7809 7.95022 63.1044C10.3893 46.4786 15.234 34.345 24.7895 24.7895C34.345 15.234 46.4786 10.3893 63.1044 7.95022C79.7809 5.50366 100.789 5.5 128 5.5C155.211 5.5 176.219 5.50366 192.896 7.95022C209.521 10.3893 221.655 15.234 231.211 24.7895C240.766 34.345 245.611 46.4786 248.05 63.1044C250.496 79.7809 250.5 100.789 250.5 128C250.5 155.211 250.496 176.219 248.05 192.896C245.611 209.521 240.766 221.655 231.211 231.211Z"/></g><g style="mix-blend-mode:soft-light" filter="url(#filter2_f)"><path stroke="url(#paint29_linear)" stroke-width="4" d="M230.857 230.857C221.404 240.31 209.388 245.125 192.823 247.555C176.191 249.995 155.225 250 128 250C100.775 250 79.809 249.995 63.177 247.555C46.6124 245.125 34.5956 240.31 25.143 230.857C15.6905 221.404 10.8751 209.388 8.44492 192.823C6.00488 176.191 6 155.225 6 128C6 100.775 6.00488 79.809 8.44492 63.177C10.8751 46.6124 15.6905 34.5956 25.143 25.143C34.5956 15.6905 46.6124 10.8751 63.177 8.44492C79.809 6.00488 100.775 6 128 6C155.225 6 176.191 6.00488 192.823 8.44492C209.388 10.8751 221.404 15.6905 230.857 25.143C240.31 34.5956 245.125 46.6124 247.555 63.177C249.995 79.809 250 100.775 250 128C250 155.225 249.995 176.191 247.555 192.823C245.125 209.388 240.31 221.404 230.857 230.857Z"/></g></g><path fill="url(#paint30_linear)" d="M381.943 205C370.883 205 360.325 203.132 350.27 199.397C340.359 195.518 332.602 190.562 327 184.528L331.956 176.339C337.27 181.942 344.381 186.539 353.287 190.131C362.336 193.579 371.817 195.303 381.728 195.303C396.092 195.303 406.937 192.573 414.263 187.114C421.589 181.655 425.252 174.544 425.252 165.78C425.252 159.028 423.313 153.641 419.434 149.618C415.556 145.596 410.744 142.507 404.998 140.352C399.252 138.197 391.496 135.97 381.728 133.672C370.667 130.942 361.762 128.285 355.01 125.699C348.403 123.113 342.729 119.162 337.989 113.846C333.392 108.387 331.094 101.132 331.094 92.0817C331.094 84.7549 333.033 78.0746 336.911 72.0408C340.79 65.8634 346.679 60.9789 354.579 57.3873C362.623 53.7958 372.607 52 384.529 52C392.86 52 401.048 53.2211 409.092 55.6634C417.136 58.1056 424.103 61.4099 429.992 65.5761L425.898 74.4113C419.865 70.2451 413.186 67.0845 405.86 64.9296C398.678 62.7747 391.567 61.6972 384.529 61.6972C370.596 61.6972 360.038 64.4986 352.856 70.1014C345.674 75.7042 342.083 82.9592 342.083 91.8662C342.083 98.6183 344.022 104.006 347.9 108.028C351.778 112.051 356.59 115.139 362.336 117.294C368.082 119.449 375.91 121.748 385.822 124.19C396.882 126.92 405.716 129.577 412.324 132.163C418.931 134.749 424.533 138.7 429.13 144.015C433.87 149.187 436.24 156.227 436.24 165.134C436.24 172.461 434.229 179.141 430.207 185.175C426.329 191.208 420.296 196.021 412.108 199.613C403.921 203.204 393.866 205 381.943 205Z"/><path fill="url(#paint31_linear)" d="M559.136 205C544.341 205 530.982 201.696 519.059 195.087C507.137 188.335 497.729 179.141 490.834 167.504C484.082 155.868 480.707 142.866 480.707 128.5C480.707 114.134 484.082 101.132 490.834 89.4958C497.729 77.8592 507.137 68.7366 519.059 62.1282C530.982 55.3761 544.341 52 559.136 52C573.931 52 587.29 55.3042 599.212 61.9127C611.135 68.5211 620.471 77.6437 627.223 89.2803C634.117 100.917 637.565 113.99 637.565 128.5C637.565 143.01 634.117 156.083 627.223 167.72C620.471 179.356 611.135 188.479 599.212 195.087C587.29 201.696 573.931 205 559.136 205ZM559.136 194.872C571.776 194.872 583.196 191.999 593.395 186.252C603.593 180.506 611.637 172.604 617.527 162.548C623.416 152.348 626.361 140.999 626.361 128.5C626.361 116.001 623.416 104.724 617.527 94.6676C611.637 84.4676 603.593 76.4944 593.395 70.7479C583.196 65.0014 571.776 62.1282 559.136 62.1282C546.495 62.1282 535.004 65.0014 524.662 70.7479C514.463 76.4944 506.419 84.4676 500.53 94.6676C494.64 104.724 491.696 116.001 491.696 128.5C491.696 140.999 494.64 152.348 500.53 162.548C506.419 172.604 514.463 180.506 524.662 186.252C535.004 191.999 546.495 194.872 559.136 194.872Z"/><path fill="url(#paint32_linear)" d="M697.225 53.0775H708.214V194.01H795.046V203.923H697.225V53.0775Z"/><path fill="url(#paint33_linear)" d="M1335.56 205C1320.76 205 1307.41 201.696 1295.48 195.087C1283.7 188.479 1274.37 179.356 1267.47 167.72C1260.72 156.083 1257.35 143.01 1257.35 128.5C1257.35 113.99 1260.72 100.917 1267.47 89.2803C1274.37 77.6437 1283.7 68.5211 1295.48 61.9127C1307.41 55.3042 1320.76 52 1335.56 52C1346.48 52 1356.53 53.7958 1365.72 57.3873C1374.92 60.8352 1382.75 66.007 1389.21 72.9028L1382.32 80.0141C1370.25 68.0901 1354.81 62.1282 1335.99 62.1282C1323.35 62.1282 1311.86 65.0014 1301.52 70.7479C1291.17 76.4944 1283.06 84.4676 1277.17 94.6676C1271.28 104.724 1268.33 116.001 1268.33 128.5C1268.33 140.999 1271.28 152.348 1277.17 162.548C1283.06 172.604 1291.17 180.506 1301.52 186.252C1311.86 191.999 1323.35 194.872 1335.99 194.872C1354.66 194.872 1370.11 188.838 1382.32 176.77L1389.21 183.882C1382.75 190.777 1374.85 196.021 1365.51 199.613C1356.32 203.204 1346.33 205 1335.56 205Z"/><path fill="url(#paint34_linear)" d="M1508.4 205C1493.6 205 1480.24 201.696 1468.32 195.087C1456.4 188.335 1446.99 179.141 1440.1 167.504C1433.35 155.868 1429.97 142.866 1429.97 128.5C1429.97 114.134 1433.35 101.132 1440.1 89.4958C1446.99 77.8592 1456.4 68.7366 1468.32 62.1282C1480.24 55.3761 1493.6 52 1508.4 52C1523.19 52 1536.55 55.3042 1548.48 61.9127C1560.4 68.5211 1569.73 77.6437 1576.49 89.2803C1583.38 100.917 1586.83 113.99 1586.83 128.5C1586.83 143.01 1583.38 156.083 1576.49 167.72C1569.73 179.356 1560.4 188.479 1548.48 195.087C1536.55 201.696 1523.19 205 1508.4 205ZM1508.4 194.872C1521.04 194.872 1532.46 191.999 1542.66 186.252C1552.86 180.506 1560.9 172.604 1566.79 162.548C1572.68 152.348 1575.62 140.999 1575.62 128.5C1575.62 116.001 1572.68 104.724 1566.79 94.6676C1560.9 84.4676 1552.86 76.4944 1542.66 70.7479C1532.46 65.0014 1521.04 62.1282 1508.4 62.1282C1495.76 62.1282 1484.27 65.0014 1473.92 70.7479C1463.73 76.4944 1455.68 84.4676 1449.79 94.6676C1443.9 104.724 1440.96 116.001 1440.96 128.5C1440.96 140.999 1443.9 152.348 1449.79 162.548C1455.68 172.604 1463.73 180.506 1473.92 186.252C1484.27 191.999 1495.76 194.872 1508.4 194.872Z"/><path fill="url(#paint35_linear)" d="M1769.3 53.0775V203.923H1760.25L1657.48 72.9028V203.923H1646.49V53.0775H1655.75L1758.31 184.097V53.0775H1769.3Z"/><path fill="url(#paint36_linear)" d="M1872.39 62.9901H1818.1V53.0775H1937.68V62.9901H1883.38V203.923H1872.39V62.9901Z"/><path fill="url(#paint37_linear)" d="M2227.09 205C2212.29 205 2198.94 201.696 2187.01 195.087C2175.09 188.335 2165.68 179.141 2158.79 167.504C2152.04 155.868 2148.66 142.866 2148.66 128.5C2148.66 114.134 2152.04 101.132 2158.79 89.4958C2165.68 77.8592 2175.09 68.7366 2187.01 62.1282C2198.94 55.3761 2212.29 52 2227.09 52C2241.89 52 2255.24 55.3042 2267.17 61.9127C2279.09 68.5211 2288.43 77.6437 2295.18 89.2803C2302.07 100.917 2305.52 113.99 2305.52 128.5C2305.52 143.01 2302.07 156.083 2295.18 167.72C2288.43 179.356 2279.09 188.479 2267.17 195.087C2255.24 201.696 2241.89 205 2227.09 205ZM2227.09 194.872C2239.73 194.872 2251.15 191.999 2261.35 186.252C2271.55 180.506 2279.59 172.604 2285.48 162.548C2291.37 152.348 2294.31 140.999 2294.31 128.5C2294.31 116.001 2291.37 104.724 2285.48 94.6676C2279.59 84.4676 2271.55 76.4944 2261.35 70.7479C2251.15 65.0014 2239.73 62.1282 2227.09 62.1282C2214.45 62.1282 2202.96 65.0014 2192.62 70.7479C2182.42 76.4944 2174.37 84.4676 2168.48 94.6676C2162.59 104.724 2159.65 116.001 2159.65 128.5C2159.65 140.999 2162.59 152.348 2168.48 162.548C2174.37 172.604 2182.42 180.506 2192.62 186.252C2202.96 191.999 2214.45 194.872 2227.09 194.872Z"/><path fill="url(#paint38_linear)" d="M2365.18 53.0775H2376.17V194.01H2463V203.923H2365.18V53.0775Z"/><path fill="url(#paint39_linear)" fill-rule="evenodd" d="M831.451 203.923L850.627 161.47L854.936 152.204L894.366 65.1451L934.012 152.204L938.105 161.47L957.497 203.923H969.348L899.968 53.0775H888.98L819.6 203.923H831.451Z" clip-rule="evenodd"/><path fill="url(#paint40_linear)" fill-rule="evenodd" d="M1087.01 153.497L1122.99 203.923H1135.49L1097.78 151.127C1109.13 147.823 1117.82 142.148 1123.85 134.103C1130.03 125.914 1133.12 115.858 1133.12 103.934C1133.12 87.9873 1127.73 75.5606 1116.96 66.6535C1106.18 57.6028 1091.32 53.0775 1072.36 53.0775H1018.28V62.9901H1029.26H1072.36C1088.44 62.9901 1100.73 66.5817 1109.2 73.7648C1117.68 80.8042 1121.91 90.8606 1121.91 103.934C1121.91 117.007 1117.68 127.135 1109.2 134.318C1100.73 141.358 1088.44 144.877 1072.36 144.877H1029.26H1018.28V203.923H1029.26V154.575H1072.36C1076.81 154.575 1081.69 154.215 1087.01 153.497Z" clip-rule="evenodd"/><path fill="url(#paint41_linear)" fill-rule="evenodd" d="M2055.21 153.497L2091.19 203.923H2103.69L2065.98 151.127C2077.33 147.823 2086.02 142.148 2092.05 134.103C2098.23 125.914 2101.32 115.858 2101.32 103.934C2101.32 87.9873 2095.93 75.5606 2085.16 66.6535C2074.38 57.6028 2059.52 53.0775 2040.56 53.0775H1986.48V62.9901H1997.46H2040.56C2056.64 62.9901 2068.93 66.5817 2077.4 73.7648C2085.88 80.8042 2090.11 90.8606 2090.11 103.934C2090.11 117.007 2085.88 127.135 2077.4 134.318C2068.93 141.358 2056.64 144.877 2040.56 144.877H1997.46H1986.48V203.923H1997.46V154.575H2040.56C2045.01 154.575 2049.89 154.215 2055.21 153.497Z" clip-rule="evenodd"/><defs><filter id="filter0_ii" width="150" height="154" x="53" y="51" color-interpolation-filters="sRGB" filterUnits="userSpaceOnUse"><feFlood flood-opacity="0" result="BackgroundImageFix"/><feBlend in="SourceGraphic" in2="BackgroundImageFix" mode="normal" result="shape"/><feColorMatrix in="SourceAlpha" result="hardAlpha" type="matrix" values="0 0 0 0 0 0 0 0 0 0 0 0 0 0 0 0 0 0 127 0"/><feOffset dy="2"/><feGaussianBlur stdDeviation="2"/><feComposite in2="hardAlpha" k2="-1" k3="1" operator="arithmetic"/><feColorMatrix type="matrix" values="0 0 0 0 1 0 0 0 0 1 0 0 0 0 1 0 0 0 0.25 0"/><feBlend in2="shape" mode="normal" result="effect1_innerShadow"/><feColorMatrix in="SourceAlpha" result="hardAlpha" type="matrix" values="0 0 0 0 0 0 0 0 0 0 0 0 0 0 0 0 0 0 127 0"/><feOffset dy="-2"/><feGaussianBlur stdDeviation="2"/><feComposite in2="hardAlpha" k2="-1" k3="1" operator="arithmetic"/><feColorMatrix type="matrix" values="0 0 0 0 0 0 0 0 0 0 0 0 0 0 0 0 0 0 0.12 0"/><feBlend in2="effect1_innerShadow" mode="normal" result="effect2_innerShadow"/></filter><filter id="filter1_f" width="252" height="252" x="2" y="2" color-interpolation-filters="sRGB" filterUnits="userSpaceOnUse"><feFlood flood-opacity="0" result="BackgroundImageFix"/><feBlend in="SourceGraphic" in2="BackgroundImageFix" mode="normal" result="shape"/><feGaussianBlur result="effect1_foregroundBlur" stdDeviation="1"/></filter><filter id="filter2_f" width="260" height="260" x="-2" y="-2" color-interpolation-filters="sRGB" filterUnits="userSpaceOnUse"><feFlood flood-opacity="0" result="BackgroundImageFix"/><feBlend in="SourceGraphic" in2="BackgroundImageFix" mode="normal" result="shape"/><feGaussianBlur result="effect1_foregroundBlur" stdDeviation="3"/></filter><radialGradient id="paint0_radial" cx="0" cy="0" r="1" gradientTransform="translate(128 128) rotate(90) scale(124)" gradientUnits="userSpaceOnUse"><stop stop-color="#EDEBE9"/><stop offset="1" stop-color="#fff"/></radialGradient><linearGradient id="paint1_linear" x1="128" x2="128" y1="17" y2="252" gradientUnits="userSpaceOnUse"><stop stop-color="#fff" stop-opacity="0"/><stop offset="1" stop-color="#526C7E" stop-opacity=".17"/></linearGradient><linearGradient id="paint2_linear" x1="128.015" x2="128.015" y1="86.632" y2="183.122" gradientUnits="userSpaceOnUse"><stop stop-color="#fff"/><stop offset="1" stop-color="#fff" stop-opacity="0"/></linearGradient><linearGradient id="paint3_linear" x1="128.015" x2="128.015" y1="86.632" y2="183.122" gradientUnits="userSpaceOnUse"><stop stop-color="#fff"/><stop offset="1" stop-color="#fff" stop-opacity="0"/></linearGradient><linearGradient id="paint4_linear" x1="128.015" x2="128.015" y1="86.632" y2="183.122" gradientUnits="userSpaceOnUse"><stop stop-color="#fff"/><stop offset="1" stop-color="#fff" stop-opacity="0"/></linearGradient><linearGradient id="paint5_linear" x1="128.015" x2="128.015" y1="86.632" y2="183.122" gradientUnits="userSpaceOnUse"><stop stop-color="#fff"/><stop offset="1" stop-color="#fff" stop-opacity="0"/></linearGradient><linearGradient id="paint6_linear" x1="128.015" x2="128.015" y1="86.632" y2="183.122" gradientUnits="userSpaceOnUse"><stop stop-color="#fff"/><stop offset="1" stop-color="#fff" stop-opacity="0"/></linearGradient><linearGradient id="paint7_linear" x1="128.015" x2="128.015" y1="86.632" y2="183.122" gradientUnits="userSpaceOnUse"><stop stop-color="#fff"/><stop offset="1" stop-color="#fff" stop-opacity="0"/></linearGradient><linearGradient id="paint8_linear" x1="128.015" x2="128.015" y1="86.632" y2="183.122" gradientUnits="userSpaceOnUse"><stop stop-color="#fff"/><stop offset="1" stop-color="#fff" stop-opacity="0"/></linearGradient><linearGradient id="paint9_linear" x1="128.015" x2="128.015" y1="86.632" y2="183.122" gradientUnits="userSpaceOnUse"><stop stop-color="#fff"/><stop offset="1" stop-color="#fff" stop-opacity="0"/></linearGradient><linearGradient id="paint10_linear" x1="128.015" x2="128.015" y1="86.632" y2="183.122" gradientUnits="userSpaceOnUse"><stop stop-color="#fff"/><stop offset="1" stop-color="#fff" stop-opacity="0"/></linearGradient><linearGradient id="paint11_linear" x1="128.015" x2="128.015" y1="86.632" y2="183.122" gradientUnits="userSpaceOnUse"><stop stop-color="#fff"/><stop offset="1" stop-color="#fff" stop-opacity="0"/></linearGradient><linearGradient id="paint12_linear" x1="128.015" x2="128.015" y1="86.632" y2="183.122" gradientUnits="userSpaceOnUse"><stop stop-color="#fff"/><stop offset="1" stop-color="#fff" stop-opacity="0"/></linearGradient><linearGradient id="paint13_linear" x1="128.015" x2="128.015" y1="86.632" y2="183.122" gradientUnits="userSpaceOnUse"><stop stop-color="#fff"/><stop offset="1" stop-color="#fff" stop-opacity="0"/></linearGradient><linearGradient id="paint14_linear" x1="128.015" x2="128.015" y1="86.632" y2="183.122" gradientUnits="userSpaceOnUse"><stop stop-color="#fff"/><stop offset="1" stop-color="#fff" stop-opacity="0"/></linearGradient><linearGradient id="paint15_linear" x1="128.015" x2="128.015" y1="86.632" y2="183.122" gradientUnits="userSpaceOnUse"><stop stop-color="#fff"/><stop offset="1" stop-color="#fff" stop-opacity="0"/></linearGradient><linearGradient id="paint16_linear" x1="128.015" x2="128.015" y1="86.632" y2="183.122" gradientUnits="userSpaceOnUse"><stop stop-color="#fff"/><stop offset="1" stop-color="#fff" stop-opacity="0"/></linearGradient><linearGradient id="paint17_linear" x1="128.015" x2="128.015" y1="86.632" y2="183.122" gradientUnits="userSpaceOnUse"><stop stop-color="#fff"/><stop offset="1" stop-color="#fff" stop-opacity="0"/></linearGradient><linearGradient id="paint18_linear" x1="128.015" x2="128.015" y1="86.632" y2="183.122" gradientUnits="userSpaceOnUse"><stop stop-color="#fff"/><stop offset="1" stop-color="#fff" stop-opacity="0"/></linearGradient><linearGradient id="paint19_linear" x1="128.015" x2="128.015" y1="86.632" y2="183.122" gradientUnits="userSpaceOnUse"><stop stop-color="#fff"/><stop offset="1" stop-color="#fff" stop-opacity="0"/></linearGradient><linearGradient id="paint20_linear" x1="128.015" x2="128.015" y1="86.632" y2="183.122" gradientUnits="userSpaceOnUse"><stop stop-color="#fff"/><stop offset="1" stop-color="#fff" stop-opacity="0"/></linearGradient><linearGradient id="paint21_linear" x1="128.015" x2="128.015" y1="86.632" y2="183.122" gradientUnits="userSpaceOnUse"><stop stop-color="#fff"/><stop offset="1" stop-color="#fff" stop-opacity="0"/></linearGradient><linearGradient id="paint22_linear" x1="128.015" x2="128.015" y1="86.632" y2="183.122" gradientUnits="userSpaceOnUse"><stop stop-color="#fff"/><stop offset="1" stop-color="#fff" stop-opacity="0"/></linearGradient><linearGradient id="paint23_linear" x1="128.015" x2="128.015" y1="86.632" y2="183.122" gradientUnits="userSpaceOnUse"><stop stop-color="#fff"/><stop offset="1" stop-color="#fff" stop-opacity="0"/></linearGradient><linearGradient id="paint24_linear" x1="128.015" x2="128.015" y1="86.632" y2="183.122" gradientUnits="userSpaceOnUse"><stop stop-color="#fff"/><stop offset="1" stop-color="#fff" stop-opacity="0"/></linearGradient><linearGradient id="paint25_linear" x1="128.015" x2="128.015" y1="86.632" y2="183.122" gradientUnits="userSpaceOnUse"><stop stop-color="#fff"/><stop offset="1" stop-color="#fff" stop-opacity="0"/></linearGradient><linearGradient id="paint26_linear" x1="1.091" x2="68.984" y1="4" y2="294.737" gradientUnits="userSpaceOnUse"><stop stop-opacity="0"/><stop offset=".606" stop-opacity=".078"/><stop offset="1" stop-opacity=".26"/></linearGradient><linearGradient id="paint27_linear" x1="1.091" x2="68.984" y1="4" y2="294.737" gradientUnits="userSpaceOnUse"><stop stop-color="#fff" stop-opacity=".26"/><stop offset=".471" stop-color="#fff" stop-opacity=".078"/><stop offset="1" stop-color="#fff" stop-opacity="0"/></linearGradient><linearGradient id="paint28_linear" x1="128" x2="128" y1="252" y2="213.25" gradientUnits="userSpaceOnUse"><stop/><stop offset="1" stop-opacity="0"/></linearGradient><linearGradient id="paint29_linear" x1="128" x2="128" y1="4" y2="128" gradientUnits="userSpaceOnUse"><stop stop-color="#fff"/><stop offset="1" stop-color="#fff" stop-opacity="0"/></linearGradient><linearGradient id="paint30_linear" x1="327" x2="2463" y1="128.5" y2="128.5" gradientUnits="userSpaceOnUse"><stop stop-color="#434343"/><stop offset="1"/></linearGradient><linearGradient id="paint31_linear" x1="327" x2="2463" y1="128.5" y2="128.5" gradientUnits="userSpaceOnUse"><stop stop-color="#434343"/><stop offset="1"/></linearGradient><linearGradient id="paint32_linear" x1="327" x2="2463" y1="128.5" y2="128.5" gradientUnits="userSpaceOnUse"><stop stop-color="#434343"/><stop offset="1"/></linearGradient><linearGradient id="paint33_linear" x1="327" x2="2463" y1="128.5" y2="128.5" gradientUnits="userSpaceOnUse"><stop stop-color="#434343"/><stop offset="1"/></linearGradient><linearGradient id="paint34_linear" x1="327" x2="2463" y1="128.5" y2="128.5" gradientUnits="userSpaceOnUse"><stop stop-color="#434343"/><stop offset="1"/></linearGradient><linearGradient id="paint35_linear" x1="327" x2="2463" y1="128.5" y2="128.5" gradientUnits="userSpaceOnUse"><stop stop-color="#434343"/><stop offset="1"/></linearGradient><linearGradient id="paint36_linear" x1="327" x2="2463" y1="128.5" y2="128.5" gradientUnits="userSpaceOnUse"><stop stop-color="#434343"/><stop offset="1"/></linearGradient><linearGradient id="paint37_linear" x1="327" x2="2463" y1="128.5" y2="128.5" gradientUnits="userSpaceOnUse"><stop stop-color="#434343"/><stop offset="1"/></linearGradient><linearGradient id="paint38_linear" x1="327" x2="2463" y1="128.5" y2="128.5" gradientUnits="userSpaceOnUse"><stop stop-color="#434343"/><stop offset="1"/></linearGradient><linearGradient id="paint39_linear" x1="327" x2="2463" y1="128.5" y2="128.5" gradientUnits="userSpaceOnUse"><stop stop-color="#434343"/><stop offset="1"/></linearGradient><linearGradient id="paint40_linear" x1="327" x2="2463" y1="128.5" y2="128.5" gradientUnits="userSpaceOnUse"><stop stop-color="#434343"/><stop offset="1"/></linearGradient><linearGradient id="paint41_linear" x1="327" x2="2463" y1="128.5" y2="128.5" gradientUnits="userSpaceOnUse"><stop stop-color="#434343"/><stop offset="1"/></linearGradient><clipPath id="clip0"><rect width="248" height="248" fill="#fff" transform="translate(4 4)"/></clipPath></defs></svg>