<?xml version="1.0" encoding="UTF-8"?>
<!-- Generator: Adobe Illustrator 21.1.0, SVG Export Plug-In . SVG Version: 6.00 Build 0)  -->
<svg version="1.1" id="Слой_1" xmlns="http://www.w3.org/2000/svg" xmlns:xlink="http://www.w3.org/1999/xlink" x="0px" y="0px" viewBox="0 0 82 20" style="enable-background:new 0 0 82 20;" xml:space="preserve">
<style type="text/css">
	.st0{opacity:0.9;}
	.st1{fill:#EF7C31;}
</style>
<g id="Welcome" class="st0">
	<g id="Home2" transform="translate(-43.000000, -36.000000)">
		<g id="logo" transform="translate(40.000000, 32.000000)">
			<path id="Shape" class="st1" d="M77.9,4v8.4L81.2,4h3.2v0.1l-4,9.5L85,24l-3.3,0l-3.8-8.9V24h-3V4H77.9z M67.9,4l0,4.7l-1.4,9     h2.9l-1.4-9l0,0L67.9,4h1.6l3.8,20h-3l-0.6-3.8h-3.7L65.4,24h-2.9v-0.1L66.4,4H67.9z M51.6,4l3.1,11.1c0.1,0.3,0.1,0.6,0.1,0.9     c0-0.2,0-0.5,0.1-0.9L58,4h2.8v20L58,24v-9.9c0-0.7,0.1-1.4,0.2-2.1l-2.6,10.2h-1.5L51.5,12l0,0.3c0.1,0.8,0.1,1.4,0.1,1.8V24     h-2.9V4H51.6z M36.7,4c1.2,0,1.8,0.6,1.8,1.8v4.3h-3V6.6h-3.9v14.8h3.9v-5.6h-2.2v-2.5h5.2v8.9h0c0,1.2-0.6,1.8-1.8,1.8h-6.2     c-1.2,0-1.8-0.6-1.8-1.8V5.9c0-1.2,0.6-1.8,1.8-1.8H36.7z M15.4,4c4.2,0,7.5,3.4,7.5,7.6v2H13v1.8h3.8C16.1,16.9,14.6,18,13,18     c-2,0-3.7-1.5-4-3.5c-0.2-2,1.1-3.9,3.1-4.3c2-0.5,4,0.6,4.6,2.6H20v-1.1c0-2.4-2.3-4.7-4.6-4.7h-4.9c-2.3,0-4.6,2.3-4.6,4.7v4.9     c0,2.3,2.3,4.7,4.6,4.7h4.9c2.3,0,4.6-2.4,4.6-4.7v-1.1h2.9v1.1c0,4.2-3.4,7.5-7.5,7.5h-4.9C6.4,24,3,20.6,3,16.5v-4.9     C3,7.4,6.4,4,10.5,4H15.4z M46.7,15v2.7h-6.1V15H46.7z"/>
		</g>
	</g>
</g>
</svg>