<svg width="1456" height="228" viewBox="0 0 1456 228" fill="none" xmlns="http://www.w3.org/2000/svg">
<path d="M36.989 166C29.5429 166 22.4352 164.743 15.6659 162.228C8.99341 159.617 3.77143 156.28 0 152.218L3.33627 146.706C6.91429 150.477 11.7011 153.572 17.6967 155.99C23.789 158.311 30.1715 159.472 36.844 159.472C46.5143 159.472 53.8154 157.634 58.7473 153.959C63.6792 150.284 66.1451 145.497 66.1451 139.597C66.1451 135.052 64.8396 131.425 62.2286 128.717C59.6176 126.009 56.3781 123.93 52.5099 122.479C48.6418 121.028 43.4198 119.529 36.844 117.982C29.3978 116.144 23.4022 114.355 18.8572 112.614C14.4088 110.873 10.589 108.214 7.39781 104.635C4.3033 100.96 2.75605 96.0761 2.75605 89.9831C2.75605 85.0507 4.06154 80.5535 6.67253 76.4915C9.28352 72.3329 13.2484 69.0446 18.567 66.6268C23.9824 64.2089 30.7033 63 38.7297 63C44.3385 63 49.8506 63.8221 55.266 65.4662C60.6814 67.1103 65.3715 69.3347 69.3363 72.1394L66.5803 78.0873C62.5187 75.2826 58.022 73.1549 53.0902 71.7042C48.255 70.2535 43.4682 69.5282 38.7297 69.5282C29.3495 69.5282 22.2418 71.4141 17.4066 75.1859C12.5714 78.9577 10.1539 83.8418 10.1539 89.838C10.1539 94.3836 11.4593 98.0103 14.0703 100.718C16.6813 103.426 19.9209 105.506 23.789 106.956C27.6572 108.407 32.9275 109.954 39.6 111.599C47.0462 113.436 52.9935 115.225 57.4418 116.966C61.8902 118.707 65.6616 121.367 68.7561 124.945C71.9473 128.427 73.5429 133.166 73.5429 139.162C73.5429 144.094 72.1891 148.592 69.4814 152.654C66.8704 156.715 62.8088 159.955 57.2967 162.373C51.7847 164.791 45.0154 166 36.989 166Z" fill="url(#paint0_linear)"/>
<path d="M156.279 166C146.318 166 137.325 163.776 129.298 159.327C121.272 154.781 114.938 148.592 110.296 140.758C105.751 132.924 103.479 124.171 103.479 114.5C103.479 104.829 105.751 96.0761 110.296 88.2423C114.938 80.4085 121.272 74.2671 129.298 69.8183C137.325 65.2728 146.318 63 156.279 63C166.239 63 175.233 65.2244 183.259 69.6732C191.285 74.1221 197.571 80.2634 202.116 88.0972C206.758 95.931 209.079 104.732 209.079 114.5C209.079 124.268 206.758 133.069 202.116 140.903C197.571 148.737 191.285 154.878 183.259 159.327C175.233 163.776 166.239 166 156.279 166ZM156.279 159.182C164.789 159.182 172.477 157.247 179.342 153.379C186.208 149.51 191.624 144.191 195.589 137.421C199.553 130.554 201.536 122.914 201.536 114.5C201.536 106.086 199.553 98.4939 195.589 91.7239C191.624 84.8573 186.208 79.4897 179.342 75.6211C172.477 71.7526 164.789 69.8183 156.279 69.8183C147.769 69.8183 140.033 71.7526 133.07 75.6211C126.204 79.4897 120.789 84.8573 116.824 91.7239C112.859 98.4939 110.876 106.086 110.876 114.5C110.876 122.914 112.859 130.554 116.824 137.421C120.789 144.191 126.204 149.51 133.07 153.379C140.033 157.247 147.769 159.182 156.279 159.182Z" fill="url(#paint1_linear)"/>
<path d="M249.243 63.7254H256.641V158.601H315.098V165.275H249.243V63.7254Z" fill="url(#paint2_linear)"/>
<path d="M678.983 166C669.023 166 660.03 163.776 652.003 159.327C644.074 154.878 637.788 148.737 633.146 140.903C628.601 133.069 626.328 124.268 626.328 114.5C626.328 104.732 628.601 95.931 633.146 88.0972C637.788 80.2634 644.074 74.1221 652.003 69.6732C660.03 65.2244 669.023 63 678.983 63C686.333 63 693.102 64.2089 699.291 66.6268C705.48 68.9479 710.75 72.4296 715.102 77.0718L710.46 81.8592C702.337 73.8319 691.942 69.8183 679.274 69.8183C670.764 69.8183 663.027 71.7526 656.065 75.6211C649.102 79.4897 643.638 84.8573 639.674 91.7239C635.709 98.4939 633.726 106.086 633.726 114.5C633.726 122.914 635.709 130.554 639.674 137.421C643.638 144.191 649.102 149.51 656.065 153.379C663.027 157.247 670.764 159.182 679.274 159.182C691.845 159.182 702.241 155.12 710.46 146.996L715.102 151.783C710.75 156.425 705.432 159.955 699.146 162.373C692.957 164.791 686.236 166 678.983 166Z" fill="url(#paint3_linear)"/>
<path d="M795.343 166C785.382 166 776.389 163.776 768.362 159.327C760.336 154.781 754.002 148.592 749.36 140.758C744.815 132.924 742.542 124.171 742.542 114.5C742.542 104.829 744.815 96.0761 749.36 88.2423C754.002 80.4085 760.336 74.2671 768.362 69.8183C776.389 65.2728 785.382 63 795.343 63C805.303 63 814.296 65.2244 822.323 69.6732C830.349 74.1221 836.635 80.2634 841.18 88.0972C845.822 95.931 848.143 104.732 848.143 114.5C848.143 124.268 845.822 133.069 841.18 140.903C836.635 148.737 830.349 154.878 822.323 159.327C814.296 163.776 805.303 166 795.343 166ZM795.343 159.182C803.852 159.182 811.54 157.247 818.406 153.379C825.272 149.51 830.688 144.191 834.652 137.421C838.617 130.554 840.6 122.914 840.6 114.5C840.6 106.086 838.617 98.4939 834.652 91.7239C830.688 84.8573 825.272 79.4897 818.406 75.6211C811.54 71.7526 803.852 69.8183 795.343 69.8183C786.833 69.8183 779.096 71.7526 772.134 75.6211C765.268 79.4897 759.852 84.8573 755.888 91.7239C751.923 98.4939 749.94 106.086 749.94 114.5C749.94 122.914 751.923 130.554 755.888 137.421C759.852 144.191 765.268 149.51 772.134 153.379C779.096 157.247 786.833 159.182 795.343 159.182Z" fill="url(#paint4_linear)"/>
<path d="M970.988 63.7254V165.275H964.896L895.705 77.0718V165.275H888.307V63.7254H894.544L963.591 151.928V63.7254H970.988Z" fill="url(#paint5_linear)"/>
<path d="M1040.39 70.3986H1003.84V63.7254H1084.34V70.3986H1047.79V165.275H1040.39V70.3986Z" fill="url(#paint6_linear)"/>
<path d="M1279.18 166C1269.22 166 1260.23 163.776 1252.2 159.327C1244.17 154.781 1237.84 148.592 1233.2 140.758C1228.65 132.924 1226.38 124.171 1226.38 114.5C1226.38 104.829 1228.65 96.0761 1233.2 88.2423C1237.84 80.4085 1244.17 74.2671 1252.2 69.8183C1260.23 65.2728 1269.22 63 1279.18 63C1289.14 63 1298.13 65.2244 1306.16 69.6732C1314.19 74.1221 1320.47 80.2634 1325.02 88.0972C1329.66 95.931 1331.98 104.732 1331.98 114.5C1331.98 124.268 1329.66 133.069 1325.02 140.903C1320.47 148.737 1314.19 154.878 1306.16 159.327C1298.13 163.776 1289.14 166 1279.18 166ZM1279.18 159.182C1287.69 159.182 1295.38 157.247 1302.24 153.379C1309.11 149.51 1314.53 144.191 1318.49 137.421C1322.46 130.554 1324.44 122.914 1324.44 114.5C1324.44 106.086 1322.46 98.4939 1318.49 91.7239C1314.53 84.8573 1309.11 79.4897 1302.24 75.6211C1295.38 71.7526 1287.69 69.8183 1279.18 69.8183C1270.67 69.8183 1262.93 71.7526 1255.97 75.6211C1249.11 79.4897 1243.69 84.8573 1239.73 91.7239C1235.76 98.4939 1233.78 106.086 1233.78 114.5C1233.78 122.914 1235.76 130.554 1239.73 137.421C1243.69 144.191 1249.11 149.51 1255.97 153.379C1262.93 157.247 1270.67 159.182 1279.18 159.182Z" fill="url(#paint7_linear)"/>
<path d="M1372.14 63.7254H1379.54V158.601H1438V165.275H1372.14V63.7254Z" fill="url(#paint8_linear)"/>
<path fill-rule="evenodd" clip-rule="evenodd" d="M339.607 165.275L352.517 136.696L355.418 130.458L381.963 71.8493L408.653 130.458L411.409 136.696L424.464 165.275H432.442L385.734 63.7254H378.336L331.629 165.275H339.607Z" fill="url(#paint9_linear)"/>
<path fill-rule="evenodd" clip-rule="evenodd" d="M511.653 131.328L535.878 165.275H544.291L518.906 129.732C526.546 127.508 532.396 123.688 536.458 118.272C540.616 112.759 542.695 105.989 542.695 97.962C542.695 87.2268 539.069 78.861 531.816 72.8648C524.563 66.7718 514.555 63.7254 501.79 63.7254H465.381V70.3986H472.779H501.79C512.62 70.3986 520.889 72.8164 526.594 77.6521C532.3 82.3911 535.152 89.161 535.152 97.962C535.152 106.763 532.3 113.581 526.594 118.417C520.889 123.156 512.62 125.525 501.79 125.525H472.779H465.381V165.275H472.779V132.054H501.79C504.787 132.054 508.075 131.812 511.653 131.328Z" fill="url(#paint10_linear)"/>
<path fill-rule="evenodd" clip-rule="evenodd" d="M1163.47 131.328L1187.69 165.275H1196.1L1170.72 129.732C1178.36 127.508 1184.21 123.688 1188.27 118.272C1192.43 112.759 1194.51 105.989 1194.51 97.962C1194.51 87.2268 1190.88 78.861 1183.63 72.8648C1176.38 66.7718 1166.37 63.7254 1153.6 63.7254H1117.19V70.3986H1124.59H1153.6C1164.43 70.3986 1172.7 72.8164 1178.41 77.6521C1184.11 82.3911 1186.97 89.161 1186.97 97.962C1186.97 106.763 1184.11 113.581 1178.41 118.417C1172.7 123.156 1164.43 125.525 1153.6 125.525H1124.59H1117.19V165.275H1124.59V132.054H1153.6C1156.6 132.054 1159.89 131.812 1163.47 131.328Z" fill="url(#paint11_linear)"/>
<defs>
<linearGradient id="paint0_linear" x1="0" y1="114.5" x2="1438" y2="114.5" gradientUnits="userSpaceOnUse">
<stop stop-color="white"/>
<stop offset="1" stop-color="white"/>
</linearGradient>
<linearGradient id="paint1_linear" x1="0" y1="114.5" x2="1438" y2="114.5" gradientUnits="userSpaceOnUse">
<stop stop-color="white"/>
<stop offset="1" stop-color="white"/>
</linearGradient>
<linearGradient id="paint2_linear" x1="0" y1="114.5" x2="1438" y2="114.5" gradientUnits="userSpaceOnUse">
<stop stop-color="white"/>
<stop offset="1" stop-color="white"/>
</linearGradient>
<linearGradient id="paint3_linear" x1="0" y1="114.5" x2="1438" y2="114.5" gradientUnits="userSpaceOnUse">
<stop stop-color="white"/>
<stop offset="1" stop-color="white"/>
</linearGradient>
<linearGradient id="paint4_linear" x1="0" y1="114.5" x2="1438" y2="114.5" gradientUnits="userSpaceOnUse">
<stop stop-color="white"/>
<stop offset="1" stop-color="white"/>
</linearGradient>
<linearGradient id="paint5_linear" x1="0" y1="114.5" x2="1438" y2="114.5" gradientUnits="userSpaceOnUse">
<stop stop-color="white"/>
<stop offset="1" stop-color="white"/>
</linearGradient>
<linearGradient id="paint6_linear" x1="0" y1="114.5" x2="1438" y2="114.5" gradientUnits="userSpaceOnUse">
<stop stop-color="white"/>
<stop offset="1" stop-color="white"/>
</linearGradient>
<linearGradient id="paint7_linear" x1="0" y1="114.5" x2="1438" y2="114.5" gradientUnits="userSpaceOnUse">
<stop stop-color="white"/>
<stop offset="1" stop-color="white"/>
</linearGradient>
<linearGradient id="paint8_linear" x1="0" y1="114.5" x2="1438" y2="114.5" gradientUnits="userSpaceOnUse">
<stop stop-color="white"/>
<stop offset="1" stop-color="white"/>
</linearGradient>
<linearGradient id="paint9_linear" x1="0" y1="114.5" x2="1438" y2="114.5" gradientUnits="userSpaceOnUse">
<stop stop-color="white"/>
<stop offset="1" stop-color="white"/>
</linearGradient>
<linearGradient id="paint10_linear" x1="0" y1="114.5" x2="1438" y2="114.5" gradientUnits="userSpaceOnUse">
<stop stop-color="white"/>
<stop offset="1" stop-color="white"/>
</linearGradient>
<linearGradient id="paint11_linear" x1="0" y1="114.5" x2="1438" y2="114.5" gradientUnits="userSpaceOnUse">
<stop stop-color="white"/>
<stop offset="1" stop-color="white"/>
</linearGradient>
</defs>
</svg>
