<svg width="112" height="31" viewBox="0 0 112 31" fill="none" xmlns="http://www.w3.org/2000/svg">
<g clip-path="url(#clip0)">
<path d="M40.176 13.12C39.664 13.12 39.176 13.04 38.712 12.88C38.248 12.72 37.844 12.496 37.5 12.208C37.156 11.92 36.904 11.588 36.744 11.212C36.664 11.044 36.664 10.888 36.744 10.744C36.832 10.6 36.976 10.508 37.176 10.468C37.32 10.436 37.46 10.46 37.596 10.54C37.74 10.612 37.848 10.724 37.92 10.876C38.016 11.076 38.172 11.26 38.388 11.428C38.612 11.596 38.88 11.732 39.192 11.836C39.504 11.94 39.832 11.992 40.176 11.992C40.56 11.992 40.912 11.932 41.232 11.812C41.56 11.692 41.824 11.52 42.024 11.296C42.224 11.064 42.324 10.78 42.324 10.444C42.324 10.02 42.156 9.64 41.82 9.304C41.492 8.968 40.948 8.76 40.188 8.68C39.196 8.584 38.416 8.292 37.848 7.804C37.28 7.316 36.996 6.712 36.996 5.992C36.996 5.464 37.144 5.016 37.44 4.648C37.736 4.28 38.136 4 38.64 3.808C39.152 3.616 39.72 3.52 40.344 3.52C41.072 3.52 41.668 3.668 42.132 3.964C42.596 4.26 42.98 4.652 43.284 5.14C43.396 5.316 43.44 5.484 43.416 5.644C43.4 5.796 43.324 5.916 43.188 6.004C43.036 6.1 42.872 6.12 42.696 6.064C42.52 6.008 42.388 5.904 42.3 5.752C42.1 5.408 41.84 5.14 41.52 4.948C41.208 4.756 40.804 4.656 40.308 4.648C39.716 4.64 39.22 4.752 38.82 4.984C38.42 5.208 38.22 5.556 38.22 6.028C38.22 6.268 38.28 6.5 38.4 6.724C38.528 6.94 38.756 7.128 39.084 7.288C39.42 7.448 39.9 7.56 40.524 7.624C41.476 7.72 42.216 8.012 42.744 8.5C43.28 8.98 43.548 9.616 43.548 10.408C43.548 10.864 43.452 11.26 43.26 11.596C43.076 11.932 42.824 12.216 42.504 12.448C42.192 12.672 41.832 12.84 41.424 12.952C41.024 13.064 40.608 13.12 40.176 13.12ZM49.7937 13.12C49.0897 13.12 48.4457 13.004 47.8617 12.772C47.2777 12.532 46.7737 12.2 46.3497 11.776C45.9337 11.344 45.6097 10.836 45.3777 10.252C45.1457 9.66 45.0297 9.012 45.0297 8.308C45.0297 7.604 45.1457 6.96 45.3777 6.376C45.6097 5.792 45.9337 5.288 46.3497 4.864C46.7737 4.432 47.2777 4.1 47.8617 3.868C48.4457 3.628 49.0897 3.508 49.7937 3.508C50.4977 3.508 51.1377 3.628 51.7137 3.868C52.2977 4.1 52.8017 4.432 53.2257 4.864C53.6497 5.288 53.9777 5.792 54.2097 6.376C54.4417 6.96 54.5577 7.604 54.5577 8.308C54.5577 9.012 54.4417 9.66 54.2097 10.252C53.9777 10.836 53.6497 11.344 53.2257 11.776C52.8017 12.2 52.2977 12.532 51.7137 12.772C51.1377 13.004 50.4977 13.12 49.7937 13.12ZM49.7937 11.992C50.4897 11.992 51.1057 11.832 51.6417 11.512C52.1777 11.184 52.5977 10.744 52.9017 10.192C53.2057 9.632 53.3577 9.004 53.3577 8.308C53.3577 7.612 53.2057 6.988 52.9017 6.436C52.5977 5.876 52.1777 5.436 51.6417 5.116C51.1057 4.796 50.4897 4.636 49.7937 4.636C49.0977 4.636 48.4817 4.796 47.9457 5.116C47.4097 5.436 46.9897 5.876 46.6857 6.436C46.3817 6.988 46.2297 7.612 46.2297 8.308C46.2297 9.004 46.3817 9.632 46.6857 10.192C46.9897 10.744 47.4097 11.184 47.9457 11.512C48.4817 11.832 49.0977 11.992 49.7937 11.992ZM57.1245 13C56.9485 13 56.8005 12.94 56.6805 12.82C56.5685 12.7 56.5125 12.552 56.5125 12.376V4.252C56.5125 4.076 56.5725 3.928 56.6925 3.808C56.8125 3.688 56.9565 3.628 57.1245 3.628C57.3005 3.628 57.4485 3.688 57.5685 3.808C57.6885 3.928 57.7485 4.076 57.7485 4.252V11.752H62.0925C62.2685 11.752 62.4165 11.812 62.5365 11.932C62.6565 12.052 62.7165 12.2 62.7165 12.376C62.7165 12.552 62.6565 12.7 62.5365 12.82C62.4165 12.94 62.2685 13 62.0925 13H57.1245ZM63.8397 13C63.6157 13 63.4437 12.904 63.3237 12.712C63.2037 12.52 63.1917 12.316 63.2877 12.1L66.6597 4.048C66.7797 3.768 66.9757 3.628 67.2477 3.628C67.5357 3.628 67.7317 3.768 67.8357 4.048L71.2197 12.124C71.3077 12.348 71.2917 12.552 71.1717 12.736C71.0597 12.912 70.8877 13 70.6557 13C70.5357 13 70.4197 12.968 70.3077 12.904C70.2037 12.832 70.1277 12.736 70.0797 12.616L69.4077 10.936H65.0997L64.4157 12.616C64.3597 12.744 64.2757 12.84 64.1637 12.904C64.0597 12.968 63.9517 13 63.8397 13ZM65.5197 9.904H68.9877L67.2717 5.632L65.5197 9.904ZM73.2732 13C73.0972 13 72.9492 12.94 72.8292 12.82C72.7092 12.7 72.6492 12.552 72.6492 12.376V4.252C72.6492 4.068 72.7092 3.92 72.8292 3.808C72.9492 3.688 73.0972 3.628 73.2732 3.628H75.4332C76.0332 3.628 76.5652 3.756 77.0292 4.012C77.4932 4.26 77.8532 4.604 78.1092 5.044C78.3732 5.484 78.5052 5.996 78.5052 6.58C78.5052 7.156 78.3612 7.664 78.0732 8.104C77.7852 8.536 77.3932 8.864 76.8972 9.088L78.7332 12.04C78.8772 12.272 78.8972 12.492 78.7932 12.7C78.6892 12.9 78.5092 13 78.2532 13C78.0212 13 77.8412 12.9 77.7132 12.7L75.6492 9.388C75.5772 9.388 75.5052 9.388 75.4332 9.388H73.8972V12.376C73.8972 12.552 73.8372 12.7 73.7172 12.82C73.6052 12.94 73.4572 13 73.2732 13ZM73.8972 8.236H75.4332C75.9772 8.236 76.4252 8.084 76.7772 7.78C77.1292 7.468 77.3052 7.068 77.3052 6.58C77.3052 6.052 77.1292 5.62 76.7772 5.284C76.4252 4.948 75.9772 4.78 75.4332 4.78H73.8972V8.236ZM41.4 26.12C40.752 26.12 40.144 26 39.576 25.76C39.016 25.512 38.524 25.172 38.1 24.74C37.684 24.3 37.356 23.788 37.116 23.204C36.884 22.62 36.768 21.988 36.768 21.308C36.768 20.636 36.884 20.012 37.116 19.436C37.356 18.852 37.684 18.344 38.1 17.912C38.524 17.472 39.016 17.128 39.576 16.88C40.136 16.632 40.744 16.508 41.4 16.508C42.016 16.508 42.544 16.588 42.984 16.748C43.432 16.908 43.88 17.172 44.328 17.54C44.424 17.62 44.488 17.696 44.52 17.768C44.552 17.84 44.568 17.928 44.568 18.032C44.568 18.184 44.512 18.312 44.4 18.416C44.296 18.512 44.168 18.568 44.016 18.584C43.864 18.592 43.716 18.54 43.572 18.428C43.276 18.172 42.968 17.976 42.648 17.84C42.336 17.704 41.92 17.636 41.4 17.636C40.928 17.636 40.484 17.732 40.068 17.924C39.652 18.116 39.284 18.38 38.964 18.716C38.652 19.052 38.408 19.444 38.232 19.892C38.056 20.332 37.968 20.804 37.968 21.308C37.968 21.82 38.056 22.3 38.232 22.748C38.408 23.188 38.652 23.576 38.964 23.912C39.284 24.248 39.652 24.512 40.068 24.704C40.484 24.888 40.928 24.98 41.4 24.98C41.808 24.98 42.192 24.912 42.552 24.776C42.92 24.632 43.272 24.436 43.608 24.188C43.752 24.084 43.892 24.04 44.028 24.056C44.172 24.064 44.292 24.12 44.388 24.224C44.484 24.32 44.532 24.456 44.532 24.632C44.532 24.8 44.468 24.948 44.34 25.076C43.476 25.772 42.496 26.12 41.4 26.12ZM50.8601 26.12C50.1561 26.12 49.5121 26.004 48.9281 25.772C48.3441 25.532 47.8401 25.2 47.4161 24.776C47.0001 24.344 46.6761 23.836 46.4441 23.252C46.2121 22.66 46.0961 22.012 46.0961 21.308C46.0961 20.604 46.2121 19.96 46.4441 19.376C46.6761 18.792 47.0001 18.288 47.4161 17.864C47.8401 17.432 48.3441 17.1 48.9281 16.868C49.5121 16.628 50.1561 16.508 50.8601 16.508C51.5641 16.508 52.2041 16.628 52.7801 16.868C53.3641 17.1 53.8681 17.432 54.2921 17.864C54.7161 18.288 55.0441 18.792 55.2761 19.376C55.5081 19.96 55.6241 20.604 55.6241 21.308C55.6241 22.012 55.5081 22.66 55.2761 23.252C55.0441 23.836 54.7161 24.344 54.2921 24.776C53.8681 25.2 53.3641 25.532 52.7801 25.772C52.2041 26.004 51.5641 26.12 50.8601 26.12ZM50.8601 24.992C51.5561 24.992 52.1721 24.832 52.7081 24.512C53.2441 24.184 53.6641 23.744 53.9681 23.192C54.2721 22.632 54.4241 22.004 54.4241 21.308C54.4241 20.612 54.2721 19.988 53.9681 19.436C53.6641 18.876 53.2441 18.436 52.7081 18.116C52.1721 17.796 51.5561 17.636 50.8601 17.636C50.1641 17.636 49.5481 17.796 49.0121 18.116C48.4761 18.436 48.0561 18.876 47.7521 19.436C47.4481 19.988 47.2961 20.612 47.2961 21.308C47.2961 22.004 47.4481 22.632 47.7521 23.192C48.0561 23.744 48.4761 24.184 49.0121 24.512C49.5481 24.832 50.1641 24.992 50.8601 24.992ZM58.1909 26C58.0149 26 57.8669 25.94 57.7469 25.82C57.6349 25.7 57.5789 25.552 57.5789 25.376V17.252C57.5789 17.068 57.6349 16.92 57.7469 16.808C57.8669 16.688 58.0149 16.628 58.1909 16.628C58.3829 16.628 58.5429 16.704 58.6709 16.856L63.9029 23.816V17.252C63.9029 17.068 63.9629 16.92 64.0829 16.808C64.2029 16.688 64.3509 16.628 64.5269 16.628C64.7109 16.628 64.8589 16.688 64.9709 16.808C65.0829 16.92 65.1389 17.068 65.1389 17.252V25.376C65.1389 25.552 65.0829 25.7 64.9709 25.82C64.8589 25.94 64.7109 26 64.5269 26C64.4469 26 64.3589 25.984 64.2629 25.952C64.1749 25.912 64.1029 25.856 64.0469 25.784L58.8149 18.824V25.376C58.8149 25.552 58.7549 25.7 58.6349 25.82C58.5229 25.94 58.3749 26 58.1909 26ZM70.3118 26C70.1358 26 69.9878 25.94 69.8678 25.82C69.7478 25.7 69.6878 25.552 69.6878 25.376V17.78H67.0958C66.9278 17.78 66.7878 17.728 66.6758 17.624C66.5718 17.512 66.5198 17.372 66.5198 17.204C66.5198 17.036 66.5718 16.9 66.6758 16.796C66.7878 16.684 66.9278 16.628 67.0958 16.628H73.5158C73.6838 16.628 73.8198 16.684 73.9238 16.796C74.0358 16.9 74.0918 17.036 74.0918 17.204C74.0918 17.372 74.0358 17.512 73.9238 17.624C73.8198 17.728 73.6838 17.78 73.5158 17.78H70.9358V25.376C70.9358 25.552 70.8758 25.7 70.7558 25.82C70.6358 25.94 70.4878 26 70.3118 26ZM76.0974 26C75.9214 26 75.7734 25.94 75.6534 25.82C75.5334 25.7 75.4734 25.552 75.4734 25.376V17.252C75.4734 17.068 75.5334 16.92 75.6534 16.808C75.7734 16.688 75.9214 16.628 76.0974 16.628H78.2574C78.8574 16.628 79.3894 16.756 79.8534 17.012C80.3174 17.26 80.6774 17.604 80.9334 18.044C81.1974 18.484 81.3294 18.996 81.3294 19.58C81.3294 20.156 81.1854 20.664 80.8974 21.104C80.6094 21.536 80.2174 21.864 79.7214 22.088L81.5574 25.04C81.7014 25.272 81.7214 25.492 81.6174 25.7C81.5134 25.9 81.3334 26 81.0774 26C80.8454 26 80.6654 25.9 80.5374 25.7L78.4734 22.388C78.4014 22.388 78.3294 22.388 78.2574 22.388H76.7214V25.376C76.7214 25.552 76.6614 25.7 76.5414 25.82C76.4294 25.94 76.2814 26 76.0974 26ZM76.7214 21.236H78.2574C78.8014 21.236 79.2494 21.084 79.6014 20.78C79.9534 20.468 80.1294 20.068 80.1294 19.58C80.1294 19.052 79.9534 18.62 79.6014 18.284C79.2494 17.948 78.8014 17.78 78.2574 17.78H76.7214V21.236ZM87.3875 26.12C86.6835 26.12 86.0395 26.004 85.4555 25.772C84.8715 25.532 84.3675 25.2 83.9435 24.776C83.5275 24.344 83.2035 23.836 82.9715 23.252C82.7395 22.66 82.6235 22.012 82.6235 21.308C82.6235 20.604 82.7395 19.96 82.9715 19.376C83.2035 18.792 83.5275 18.288 83.9435 17.864C84.3675 17.432 84.8715 17.1 85.4555 16.868C86.0395 16.628 86.6835 16.508 87.3875 16.508C88.0915 16.508 88.7315 16.628 89.3075 16.868C89.8915 17.1 90.3955 17.432 90.8195 17.864C91.2435 18.288 91.5715 18.792 91.8035 19.376C92.0355 19.96 92.1515 20.604 92.1515 21.308C92.1515 22.012 92.0355 22.66 91.8035 23.252C91.5715 23.836 91.2435 24.344 90.8195 24.776C90.3955 25.2 89.8915 25.532 89.3075 25.772C88.7315 26.004 88.0915 26.12 87.3875 26.12ZM87.3875 24.992C88.0835 24.992 88.6995 24.832 89.2355 24.512C89.7715 24.184 90.1915 23.744 90.4955 23.192C90.7995 22.632 90.9515 22.004 90.9515 21.308C90.9515 20.612 90.7995 19.988 90.4955 19.436C90.1915 18.876 89.7715 18.436 89.2355 18.116C88.6995 17.796 88.0835 17.636 87.3875 17.636C86.6915 17.636 86.0755 17.796 85.5395 18.116C85.0035 18.436 84.5835 18.876 84.2795 19.436C83.9755 19.988 83.8235 20.612 83.8235 21.308C83.8235 22.004 83.9755 22.632 84.2795 23.192C84.5835 23.744 85.0035 24.184 85.5395 24.512C86.0755 24.832 86.6915 24.992 87.3875 24.992ZM94.7183 26C94.5423 26 94.3943 25.94 94.2743 25.82C94.1623 25.7 94.1063 25.552 94.1063 25.376V17.252C94.1063 17.076 94.1663 16.928 94.2863 16.808C94.4063 16.688 94.5503 16.628 94.7183 16.628C94.8943 16.628 95.0423 16.688 95.1623 16.808C95.2823 16.928 95.3423 17.076 95.3423 17.252V24.752H99.6862C99.8623 24.752 100.01 24.812 100.13 24.932C100.25 25.052 100.31 25.2 100.31 25.376C100.31 25.552 100.25 25.7 100.13 25.82C100.01 25.94 99.8623 26 99.6862 26H94.7183Z" fill="white"/>
<g filter="url(#filter0_d)">
<g clip-path="url(#clip1)">
<path d="M29.3637 8.93601L16.8412 1.02319L16.4763 1.19929L16.8914 10.0041L29.049 18.0959L29.4139 17.9198L29.3637 8.93601Z" fill="#9D9D9C"/>
<path d="M28.9988 9.11204L16.4763 1.19922L16.5265 10.1802L29.049 18.0959L28.9988 9.11204Z" fill="#EDEDED"/>
<path d="M16.9651 9.89441L19.6363 11.5803L19.6229 9.23621L16.9551 7.55029L16.9651 9.89441Z" fill="#31607D"/>
<path d="M19.9543 11.7823L22.6222 13.4683L22.6121 11.1241L19.9409 9.43823L19.9543 11.7823Z" fill="#31607D"/>
<path d="M22.9436 13.6703L25.6114 15.3562L25.6014 13.015L22.9302 11.3262L22.9436 13.6703Z" fill="#31607D"/>
<path d="M25.9328 15.5612L28.6007 17.2471L28.5873 14.903L25.9194 13.217L25.9328 15.5612Z" fill="#31607D"/>
<path d="M16.9519 7.14318L19.6197 8.8291L19.6097 6.48498L16.9385 4.79907L16.9519 7.14318Z" fill="#31607D"/>
<path d="M19.9409 9.03112L22.6087 10.717L22.5953 8.37292L19.9275 6.68701L19.9409 9.03112Z" fill="#31607D"/>
<path d="M22.9268 10.9191L25.598 12.605L25.5846 10.2609L22.9167 8.57495L22.9268 10.9191Z" fill="#31607D"/>
<path d="M25.916 12.8072L28.5872 14.4932L28.5739 12.1519L25.906 10.4631L25.916 12.8072Z" fill="#31607D"/>
<path d="M16.9384 4.38908L19.6063 6.07787L19.5929 3.73376L16.925 2.04785L16.9384 4.38908Z" fill="#31607D"/>
<path d="M19.9241 6.28015L22.5953 7.96606L22.5819 5.62195L19.9141 3.93604L19.9241 6.28015Z" fill="#31607D"/>
<path d="M22.9135 8.16809L25.5814 9.854L25.5713 7.50989L22.9001 5.82397L22.9135 8.16809Z" fill="#31607D"/>
<path d="M25.9025 10.056L28.5704 11.7419L28.557 9.39783L25.8892 7.71191L25.9025 10.056Z" fill="#31607D"/>
<path opacity="0.2" d="M28.6006 17.247L16.925 2.04785L28.5571 9.39773L28.6006 17.247Z" fill="white"/>
<path d="M3.01004 8.94169L15.4756 1L15.8405 1.1761L15.4656 10.0012L3.36486 18.1161L3 17.9428L3.01004 8.94169Z" fill="#9D9D9C"/>
<path d="M3.37503 9.11772L15.8406 1.17603L15.8306 10.1743L3.36499 18.116L3.37503 9.11772Z" fill="#EDEDED"/>
<path d="M15.3885 9.8885L12.7307 11.5802L12.7341 9.23319L15.3919 7.5415L15.3885 9.8885Z" fill="#31607D"/>
<path d="M12.4161 11.7852L9.7583 13.4769L9.76165 11.127L12.4161 9.4353V11.7852Z" fill="#31607D"/>
<path d="M9.44027 13.679L6.78247 15.3707L6.78582 13.0237L9.44362 11.332L9.44027 13.679Z" fill="#31607D"/>
<path d="M6.46452 15.5757L3.81006 17.2674V14.9175L6.46786 13.2258L6.46452 15.5757Z" fill="#31607D"/>
<path d="M15.392 7.13167L12.7375 8.82335V6.47635L15.3954 4.78467L15.392 7.13167Z" fill="#31607D"/>
<path d="M12.4195 9.02547L9.76172 10.72L9.76507 8.37015L12.4195 6.67847V9.02547Z" fill="#31607D"/>
<path d="M9.44369 10.9219L6.78589 12.6136L6.78924 10.2666L9.44704 8.57202L9.44369 10.9219Z" fill="#31607D"/>
<path d="M6.46793 12.8186L3.81348 14.5103V12.1604L6.47128 10.4688L6.46793 12.8186Z" fill="#31607D"/>
<path d="M15.3954 4.37479L12.7375 6.06647L12.7409 3.71948L15.3987 2.0249L15.3954 4.37479Z" fill="#31607D"/>
<path d="M12.4193 6.26863L9.76489 7.9632L9.76824 5.61332L12.4227 3.92163L12.4193 6.26863Z" fill="#31607D"/>
<path d="M9.44686 8.16507L6.78906 9.85676L6.79241 7.50976L9.45021 5.81519L9.44686 8.16507Z" fill="#31607D"/>
<path d="M6.47111 10.0589L3.81665 11.7535V9.4036L6.47445 7.71191L6.47111 10.0589Z" fill="#31607D"/>
<path opacity="0.2" d="M3.81006 17.2674L15.3986 2.0249L3.81675 9.40365L3.81006 17.2674Z" fill="white"/>
<path d="M15.8339 16.8371L3.3717 8.77417L3.00684 8.94449L3.365 17.7667L15.459 25.9999L15.8272 25.8296L15.8339 16.8371Z" fill="#9D9D9C"/>
<path d="M15.4656 17.0075L3.00669 8.94458L3 17.9371L15.4589 26L15.4656 17.0075Z" fill="#EDEDED"/>
<path d="M3.44189 17.6571L6.0997 19.3747V17.0277L3.44524 15.3101L3.44189 17.6571Z" fill="#31607D"/>
<path d="M6.41772 19.5797L9.07218 21.2973V18.9532L6.41772 17.2327V19.5797Z" fill="#31607D"/>
<path d="M9.39014 21.5052L12.0446 23.2229V20.8759L9.39014 19.1582V21.5052Z" fill="#31607D"/>
<path d="M12.3625 23.4278L15.017 25.1455L15.0203 22.8014L12.3659 21.0808L12.3625 23.4278Z" fill="#31607D"/>
<path d="M3.44531 14.9032L6.09977 16.6208L6.10312 14.2738L3.44531 12.5562V14.9032Z" fill="#31607D"/>
<path d="M6.41772 16.8258L9.07218 18.5434L9.07553 16.1964L6.42107 14.4788L6.41772 16.8258Z" fill="#31607D"/>
<path d="M9.39014 18.7484L12.0479 20.469V18.122L9.39348 16.4043L9.39014 18.7484Z" fill="#31607D"/>
<path d="M12.366 20.6737L15.0204 22.3913V20.0443L12.366 18.3267V20.6737Z" fill="#31607D"/>
<path d="M3.44531 12.1461L6.10312 13.8637V11.5167L3.44866 9.79907L3.44531 12.1461Z" fill="#31607D"/>
<path d="M6.4209 14.0716L9.07535 15.7893V13.4423L6.4209 11.7246V14.0716Z" fill="#31607D"/>
<path d="M9.39355 15.9942L12.048 17.7119L12.0514 15.3649L9.39355 13.6472V15.9942Z" fill="#31607D"/>
<path d="M12.366 17.9169L15.0204 19.6374L15.0238 17.2904L12.3693 15.5728L12.366 17.9169Z" fill="#31607D"/>
<path opacity="0.2" d="M15.017 25.1455L3.44849 9.79907L15.0236 17.2904L15.017 25.1455Z" fill="white"/>
<path d="M16.4932 16.8488L29.0022 8.8147L29.3704 8.98502L29.0458 17.7495L16.9049 25.9538L16.5367 25.7835L16.4932 16.8488Z" fill="#9D9D9C"/>
<path d="M16.8613 17.0189L29.3704 8.98486L29.4139 17.9196L16.9048 25.9537L16.8613 17.0189Z" fill="#EDEDED"/>
<path d="M28.9656 17.6397L26.3011 19.3516L26.291 17.019L28.9555 15.3071L28.9656 17.6397Z" fill="#31607D"/>
<path d="M25.9828 19.5564L23.315 21.2683L23.3049 18.9358L25.9694 17.2239L25.9828 19.5564Z" fill="#31607D"/>
<path d="M22.9972 21.4735L20.3327 23.1854L20.3193 20.8557L22.9872 19.1438L22.9972 21.4735Z" fill="#31607D"/>
<path d="M20.0112 23.3902L17.3467 25.1021L17.3367 22.7724L20.0012 21.0605L20.0112 23.3902Z" fill="#31607D"/>
<path d="M28.9521 14.9029L26.2876 16.6148L26.2776 14.2822L28.9421 12.5703L28.9521 14.9029Z" fill="#31607D"/>
<path d="M25.9696 16.8199L23.3051 18.5318L23.2917 16.1992L25.9562 14.4873L25.9696 16.8199Z" fill="#31607D"/>
<path d="M22.9838 18.7369L20.3193 20.4488L20.3059 18.1191L22.9738 16.4043L22.9838 18.7369Z" fill="#31607D"/>
<path d="M19.9978 20.6537L17.3333 22.3656L17.3232 20.0359L19.9877 18.324L19.9978 20.6537Z" fill="#31607D"/>
<path d="M28.942 12.1663L26.2742 13.8782L26.2642 11.5456L28.9287 9.83374L28.942 12.1663Z" fill="#31607D"/>
<path d="M25.9562 14.0831L23.2917 15.7949L23.2783 13.4624L25.9462 11.7505L25.9562 14.0831Z" fill="#31607D"/>
<path d="M22.9704 16L20.3059 17.7119L20.2925 15.3794L22.9603 13.6675L22.9704 16Z" fill="#31607D"/>
<path d="M19.9846 17.9168L17.3201 19.6287L17.3101 17.2961L19.9746 15.5842L19.9846 17.9168Z" fill="#31607D"/>
<path opacity="0.2" d="M17.3469 25.1022L28.9287 9.83374L17.3101 17.2962L17.3469 25.1022Z" fill="white"/>
</g>
</g>
</g>
<defs>
<filter id="filter0_d" x="-1" y="-2" width="34.414" height="33" filterUnits="userSpaceOnUse" color-interpolation-filters="sRGB">
<feFlood flood-opacity="0" result="BackgroundImageFix"/>
<feColorMatrix in="SourceAlpha" type="matrix" values="0 0 0 0 0 0 0 0 0 0 0 0 0 0 0 0 0 0 127 0"/>
<feOffset dy="1"/>
<feGaussianBlur stdDeviation="2"/>
<feColorMatrix type="matrix" values="0 0 0 0 0 0 0 0 0 0 0 0 0 0 0 0 0 0 0.25 0"/>
<feBlend mode="normal" in2="BackgroundImageFix" result="effect1_dropShadow"/>
<feBlend mode="normal" in="SourceGraphic" in2="effect1_dropShadow" result="shape"/>
</filter>
<clipPath id="clip0">
<rect width="111.196" height="30.566" fill="white"/>
</clipPath>
<clipPath id="clip1">
<rect x="3" y="1" width="26.414" height="25" fill="white"/>
</clipPath>
</defs>
</svg>
