<svg width="480" height="481" viewBox="0 0 480 481" fill="none" xmlns="http://www.w3.org/2000/svg">
<path d="M472 296H408C405.878 296 403.843 295.157 402.343 293.657C400.843 292.157 400 290.122 400 288C400 285.878 400.843 283.843 402.343 282.343C403.843 280.843 405.878 280 408 280H464V200H409.36C407.618 199.999 405.924 199.43 404.535 198.379C403.146 197.328 402.138 195.852 401.664 194.176C398.129 181.624 393.11 169.539 386.712 158.176C385.851 156.653 385.512 154.889 385.749 153.155C385.986 151.421 386.785 149.812 388.024 148.576L426.688 109.912L370.08 53.312L331.416 92C330.18 93.2386 328.571 94.0377 326.837 94.2747C325.103 94.5116 323.339 94.1735 321.816 93.312C310.452 86.9162 298.367 81.8968 285.816 78.36C284.137 77.8836 282.66 76.8714 281.61 75.4776C280.56 74.0839 279.995 72.385 280 70.64V16H200V70.64C199.999 72.3819 199.43 74.0761 198.379 75.4652C197.328 76.8542 195.852 77.8622 194.176 78.336C181.624 81.871 169.539 86.8905 158.176 93.288C156.653 94.1495 154.889 94.4876 153.155 94.2507C151.421 94.0137 149.812 93.2146 148.576 91.976L109.92 53.312L53.312 109.92L92 148.584C93.2386 149.82 94.0377 151.429 94.2747 153.163C94.5116 154.897 94.1735 156.661 93.312 158.184C86.9181 169.549 81.8989 181.634 78.36 194.184C77.8836 195.863 76.8714 197.34 75.4776 198.39C74.0839 199.44 72.385 200.005 70.64 200H16V280H70.64C72.7617 280 74.7966 280.843 76.2969 282.343C77.7971 283.843 78.64 285.878 78.64 288C78.64 290.122 77.7971 292.157 76.2969 293.657C74.7966 295.157 72.7617 296 70.64 296H8C5.87827 296 3.84344 295.157 2.34315 293.657C0.842854 292.157 0 290.122 0 288V192C0 189.878 0.842854 187.843 2.34315 186.343C3.84344 184.843 5.87827 184 8 184H64.696C67.8011 174.241 71.7327 164.764 76.448 155.672L36.344 115.576C34.8442 114.076 34.0017 112.041 34.0017 109.92C34.0017 107.799 34.8442 105.764 36.344 104.264L104.264 36.344C105.764 34.8442 107.799 34.0017 109.92 34.0017C112.041 34.0017 114.076 34.8442 115.576 36.344L155.68 76.448C164.768 71.7314 174.243 67.7997 184 64.696V8C184 5.87827 184.843 3.84344 186.343 2.34315C187.843 0.842854 189.878 0 192 0H288C290.122 0 292.157 0.842854 293.657 2.34315C295.157 3.84344 296 5.87827 296 8V64.696C305.757 67.7997 315.232 71.7314 324.32 76.448L364.424 36.344C365.924 34.8442 367.959 34.0017 370.08 34.0017C372.201 34.0017 374.236 34.8442 375.736 36.344L443.656 104.264C445.156 105.764 445.998 107.799 445.998 109.92C445.998 112.041 445.156 114.076 443.656 115.576L403.552 155.672C408.264 164.765 412.195 174.242 415.304 184H472C474.122 184 476.157 184.843 477.657 186.343C479.157 187.843 480 189.878 480 192V288C480 290.122 479.157 292.157 477.657 293.657C476.157 295.157 474.122 296 472 296Z" fill="url(#paint0_linear)"/>
<path d="M440 417.136V360C440 358.726 439.696 357.471 439.113 356.338C438.53 355.205 437.685 354.228 436.648 353.488L384 315.88V240C384 201.809 368.829 165.182 341.823 138.177C314.818 111.171 278.191 96 240 96C201.809 96 165.182 111.171 138.177 138.177C111.171 165.182 96 201.809 96 240V315.88L43.352 353.48C42.3141 354.221 41.4683 355.199 40.8852 356.333C40.3021 357.468 39.9986 358.725 40 360V417.136C32.4587 419.083 25.8865 423.714 21.5152 430.16C17.1439 436.606 15.2737 444.425 16.2551 452.152C17.2364 459.879 21.0021 466.982 26.8461 472.131C32.6902 477.279 40.2114 480.12 48 480.12C55.7886 480.12 63.3098 477.279 69.1539 472.131C74.9979 466.982 78.7636 459.879 79.7449 452.152C80.7263 444.425 78.8561 436.606 74.4848 430.16C70.1135 423.714 63.5413 419.083 56 417.136V364.12L108.648 326.52C109.686 325.779 110.532 324.801 111.115 323.667C111.698 322.532 112.001 321.275 112 320V240C112 206.052 125.486 173.495 149.49 149.49C173.495 125.486 206.052 112 240 112C273.948 112 306.505 125.486 330.51 149.49C354.514 173.495 368 206.052 368 240V320C368 321.274 368.304 322.529 368.887 323.662C369.47 324.795 370.315 325.772 371.352 326.512L424 364.12V417.136C416.459 419.083 409.886 423.714 405.515 430.16C401.144 436.606 399.274 444.425 400.255 452.152C401.236 459.879 405.002 466.982 410.846 472.131C416.69 477.279 424.211 480.12 432 480.12C439.789 480.12 447.31 477.279 453.154 472.131C458.998 466.982 462.764 459.879 463.745 452.152C464.726 444.425 462.856 436.606 458.485 430.16C454.114 423.714 447.541 419.083 440 417.136ZM64 448C64 451.165 63.0616 454.258 61.3035 456.889C59.5454 459.52 57.0466 461.571 54.1229 462.782C51.1993 463.993 47.9823 464.31 44.8786 463.693C41.7749 463.075 38.9239 461.551 36.6863 459.314C34.4487 457.076 32.9248 454.225 32.3074 451.121C31.6901 448.018 32.0069 444.801 33.2179 441.877C34.4289 438.953 36.4797 436.455 39.1109 434.696C41.7421 432.938 44.8355 432 48 432C52.2435 432 56.3131 433.686 59.3137 436.686C62.3143 439.687 64 443.757 64 448ZM432 464C428.835 464 425.742 463.062 423.111 461.304C420.48 459.545 418.429 457.047 417.218 454.123C416.007 451.199 415.69 447.982 416.307 444.879C416.925 441.775 418.449 438.924 420.686 436.686C422.924 434.449 425.775 432.925 428.879 432.307C431.982 431.69 435.199 432.007 438.123 433.218C441.047 434.429 443.545 436.48 445.304 439.111C447.062 441.742 448 444.835 448 448C448 452.243 446.314 456.313 443.314 459.314C440.313 462.314 436.243 464 432 464Z" fill="url(#paint1_linear)"/>
<path d="M336 353.136V240C336 214.539 325.886 190.121 307.882 172.118C289.879 154.114 265.461 144 240 144C214.539 144 190.121 154.114 172.118 172.118C154.114 190.121 144 214.539 144 240V353.136C136.459 355.083 129.886 359.714 125.515 366.16C121.144 372.606 119.274 380.425 120.255 388.152C121.236 395.879 125.002 402.982 130.846 408.131C136.69 413.279 144.211 416.12 152 416.12C159.789 416.12 167.31 413.279 173.154 408.131C178.998 402.982 182.764 395.879 183.745 388.152C184.726 380.425 182.856 372.606 178.485 366.16C174.114 359.714 167.541 355.083 160 353.136V240C160 218.783 168.429 198.434 183.431 183.431C198.434 168.429 218.783 160 240 160C261.217 160 281.566 168.429 296.569 183.431C311.571 198.434 320 218.783 320 240V353.136C312.459 355.083 305.886 359.714 301.515 366.16C297.144 372.606 295.274 380.425 296.255 388.152C297.236 395.879 301.002 402.982 306.846 408.131C312.69 413.279 320.211 416.12 328 416.12C335.789 416.12 343.31 413.279 349.154 408.131C354.998 402.982 358.764 395.879 359.745 388.152C360.726 380.425 358.856 372.606 354.485 366.16C350.114 359.714 343.541 355.083 336 353.136ZM168 384C168 387.165 167.062 390.258 165.304 392.889C163.545 395.52 161.047 397.571 158.123 398.782C155.199 399.993 151.982 400.31 148.879 399.693C145.775 399.075 142.924 397.551 140.686 395.314C138.449 393.076 136.925 390.225 136.307 387.121C135.69 384.018 136.007 380.801 137.218 377.877C138.429 374.953 140.48 372.455 143.111 370.696C145.742 368.938 148.835 368 152 368C156.243 368 160.313 369.686 163.314 372.686C166.314 375.687 168 379.757 168 384ZM328 400C324.835 400 321.742 399.062 319.111 397.304C316.48 395.545 314.429 393.047 313.218 390.123C312.007 387.199 311.69 383.982 312.307 380.879C312.925 377.775 314.449 374.924 316.686 372.686C318.924 370.449 321.775 368.925 324.879 368.307C327.982 367.69 331.199 368.007 334.123 369.218C337.047 370.429 339.545 372.48 341.304 375.111C343.062 377.742 344 380.835 344 384C344 388.243 342.314 392.313 339.314 395.314C336.313 398.314 332.243 400 328 400Z" fill="url(#paint2_linear)"/>
<path d="M248 417.136V288C248 285.878 247.157 283.843 245.657 282.343C244.157 280.843 242.122 280 240 280C237.878 280 235.843 280.843 234.343 282.343C232.843 283.843 232 285.878 232 288V417.136C224.459 419.083 217.886 423.714 213.515 430.16C209.144 436.606 207.274 444.425 208.255 452.152C209.236 459.879 213.002 466.982 218.846 472.131C224.69 477.279 232.211 480.12 240 480.12C247.789 480.12 255.31 477.279 261.154 472.131C266.998 466.982 270.764 459.879 271.745 452.152C272.726 444.425 270.856 436.606 266.485 430.16C262.114 423.714 255.541 419.083 248 417.136ZM240 464C236.835 464 233.742 463.062 231.111 461.304C228.48 459.545 226.429 457.047 225.218 454.123C224.007 451.199 223.69 447.982 224.307 444.879C224.925 441.775 226.449 438.924 228.686 436.686C230.924 434.449 233.775 432.925 236.879 432.307C239.982 431.69 243.199 432.007 246.123 433.218C249.047 434.429 251.545 436.48 253.304 439.111C255.062 441.742 256 444.835 256 448C256 452.243 254.314 456.313 251.314 459.314C248.313 462.314 244.243 464 240 464Z" fill="url(#paint3_linear)"/>
<path d="M240 192C230.506 192 221.226 194.815 213.333 200.089C205.439 205.364 199.287 212.86 195.654 221.631C192.021 230.402 191.07 240.053 192.922 249.364C194.774 258.675 199.346 267.228 206.059 273.941C212.772 280.654 221.325 285.226 230.636 287.078C239.947 288.93 249.598 287.979 258.369 284.346C267.14 280.713 274.636 274.561 279.911 266.667C285.185 258.774 288 249.494 288 240C287.987 227.274 282.926 215.072 273.927 206.073C264.928 197.074 252.726 192.013 240 192ZM240 272C233.671 272 227.484 270.123 222.222 266.607C216.959 263.091 212.858 258.093 210.436 252.246C208.014 246.399 207.38 239.965 208.615 233.757C209.85 227.55 212.897 221.848 217.373 217.373C221.848 212.897 227.55 209.85 233.757 208.615C239.965 207.38 246.399 208.014 252.246 210.436C258.093 212.858 263.091 216.959 266.607 222.222C270.123 227.484 272 233.671 272 240C272 248.487 268.629 256.626 262.627 262.627C256.626 268.629 248.487 272 240 272Z" fill="url(#paint4_linear)"/>
<path d="M232 32H248V48H232V32Z" fill="url(#paint5_linear)"/>
<path d="M87.2425 98.576L98.5562 87.2623L109.87 98.576L98.5562 109.89L87.2425 98.576Z" fill="url(#paint6_linear)"/>
<path d="M32 232H48V248H32V232Z" fill="url(#paint7_linear)"/>
<path d="M432 232H448V248H432V232Z" fill="url(#paint8_linear)"/>
<path d="M370.056 98.6025L381.37 87.2887L392.683 98.6025L381.37 109.916L370.056 98.6025Z" fill="url(#paint9_linear)"/>
<defs>
<linearGradient id="paint0_linear" x1="0" y1="240.06" x2="480" y2="240.06" gradientUnits="userSpaceOnUse">
<stop stop-color="#0BA360"/>
<stop offset="1" stop-color="#3CBA92"/>
</linearGradient>
<linearGradient id="paint1_linear" x1="0" y1="240.06" x2="480" y2="240.06" gradientUnits="userSpaceOnUse">
<stop stop-color="#0BA360"/>
<stop offset="1" stop-color="#3CBA92"/>
</linearGradient>
<linearGradient id="paint2_linear" x1="0" y1="240.06" x2="480" y2="240.06" gradientUnits="userSpaceOnUse">
<stop stop-color="#0BA360"/>
<stop offset="1" stop-color="#3CBA92"/>
</linearGradient>
<linearGradient id="paint3_linear" x1="0" y1="240.06" x2="480" y2="240.06" gradientUnits="userSpaceOnUse">
<stop stop-color="#0BA360"/>
<stop offset="1" stop-color="#3CBA92"/>
</linearGradient>
<linearGradient id="paint4_linear" x1="0" y1="240.06" x2="480" y2="240.06" gradientUnits="userSpaceOnUse">
<stop stop-color="#0BA360"/>
<stop offset="1" stop-color="#3CBA92"/>
</linearGradient>
<linearGradient id="paint5_linear" x1="0" y1="240.06" x2="480" y2="240.06" gradientUnits="userSpaceOnUse">
<stop stop-color="#0BA360"/>
<stop offset="1" stop-color="#3CBA92"/>
</linearGradient>
<linearGradient id="paint6_linear" x1="0" y1="240.06" x2="480" y2="240.06" gradientUnits="userSpaceOnUse">
<stop stop-color="#0BA360"/>
<stop offset="1" stop-color="#3CBA92"/>
</linearGradient>
<linearGradient id="paint7_linear" x1="0" y1="240.06" x2="480" y2="240.06" gradientUnits="userSpaceOnUse">
<stop stop-color="#0BA360"/>
<stop offset="1" stop-color="#3CBA92"/>
</linearGradient>
<linearGradient id="paint8_linear" x1="0" y1="240.06" x2="480" y2="240.06" gradientUnits="userSpaceOnUse">
<stop stop-color="#0BA360"/>
<stop offset="1" stop-color="#3CBA92"/>
</linearGradient>
<linearGradient id="paint9_linear" x1="0" y1="240.06" x2="480" y2="240.06" gradientUnits="userSpaceOnUse">
<stop stop-color="#0BA360"/>
<stop offset="1" stop-color="#3CBA92"/>
</linearGradient>
</defs>
</svg>
