<svg xmlns="http://www.w3.org/2000/svg" width="480" height="482" fill="none" viewBox="0 0 480 482"><path fill="url(#paint0_linear)" d="M192 224.672V281C192 283.122 192.843 285.157 194.343 286.657C195.843 288.157 197.878 289 200 289H280C282.122 289 284.157 288.157 285.657 286.657C287.157 285.157 288 283.122 288 281V201C288 198.878 287.157 196.843 285.657 195.343C284.157 193.843 282.122 193 280 193H224.064C221.969 193.002 219.958 193.827 218.464 195.296L194.4 218.968C193.641 219.712 193.038 220.599 192.626 221.579C192.214 222.558 192.001 223.609 192 224.672ZM208 228.024L227.336 209H272V273H208V228.024Z"/><path fill="url(#paint1_linear)" d="M448 345C440.926 345.027 434.061 347.396 428.476 351.738C422.892 356.081 418.904 362.151 417.136 369H400V313.8C428.621 294.479 454.824 271.797 478.048 246.24C479.305 244.787 479.996 242.929 479.996 241.008C479.996 239.087 479.305 237.229 478.048 235.776C446.336 200.961 409.167 171.541 368 148.672V77.12L395.56 57.416C401.262 62.2814 408.504 64.9685 416 65C422.909 65.0613 429.656 62.9043 435.249 58.8462C440.842 54.7881 444.985 49.0429 447.07 42.4551C449.154 35.8673 449.071 28.7845 446.831 22.2478C444.591 15.711 440.314 10.0652 434.627 6.14016C428.94 2.21514 422.144 0.217992 415.238 0.442285C408.332 0.666578 401.68 3.10048 396.26 7.38622C390.84 11.672 386.938 17.5835 385.127 24.2518C383.316 30.9201 383.692 37.9934 386.2 44.432L355.344 66.496C354.31 67.2362 353.467 68.2124 352.885 69.3435C352.304 70.4746 352 71.7281 352 73V140.432C319.567 124.325 284.166 115.066 248 113.232V63.864C255.541 61.9169 262.113 57.2862 266.485 50.8399C270.856 44.3937 272.726 36.5745 271.745 28.848C270.764 21.1215 266.998 14.0181 261.154 8.86942C255.31 3.72071 247.789 0.880134 240 0.880134C232.211 0.880134 224.69 3.72071 218.846 8.86942C213.002 14.0181 209.236 21.1215 208.255 28.848C207.274 36.5745 209.144 44.3937 213.515 50.8399C217.886 57.2862 224.459 61.9169 232 63.864V113.224C198.787 114.841 166.195 122.831 136 136.76V73C136 71.7281 135.696 70.4746 135.115 69.3435C134.533 68.2124 133.69 67.2362 132.656 66.496L101.8 44.432C104.227 38.0627 104.554 31.0839 102.731 24.5158C100.909 17.9477 97.0336 12.1347 91.6715 7.92657C86.3094 3.71844 79.7418 1.33584 72.9288 1.12703C66.1158 0.918228 59.4146 2.89418 53.8048 6.76604C48.1951 10.6379 43.9709 16.2027 41.7498 22.6468C39.5286 29.091 39.4271 36.0767 41.4599 42.5827C43.4927 49.0887 47.5533 54.774 53.0481 58.8073C58.5429 62.8406 65.1838 65.0106 72 65C79.4957 64.9685 86.7377 62.2814 92.44 57.416L120 77.12V144.432C75.6447 167.79 35.6981 198.698 1.95195 235.768C0.695391 237.221 0.00390625 239.079 0.00390625 241C0.00390625 242.921 0.695391 244.779 1.95195 246.232C29.4923 276.469 61.1524 302.678 96 324.088V369H78.864C76.9168 361.459 72.2861 354.886 65.8399 350.515C59.3937 346.144 51.5745 344.274 43.8479 345.255C36.1214 346.236 29.0181 350.002 23.8694 355.846C18.7207 361.69 15.8801 369.211 15.8801 377C15.8801 384.789 18.7207 392.31 23.8694 398.154C29.0181 403.998 36.1214 407.764 43.8479 408.745C51.5745 409.726 59.3937 407.856 65.8399 403.485C72.2861 399.114 76.9168 392.541 78.864 385H104C106.122 385 108.157 384.157 109.657 382.657C111.157 381.157 112 379.122 112 377V333.328C144.095 351.459 179.424 363.145 216 367.728V425H198.864C196.917 417.459 192.286 410.886 185.84 406.515C179.394 402.144 171.574 400.274 163.848 401.255C156.121 402.236 149.018 406.002 143.869 411.846C138.721 417.69 135.88 425.211 135.88 433C135.88 440.789 138.721 448.31 143.869 454.154C149.018 459.998 156.121 463.764 163.848 464.745C171.574 465.726 179.394 463.856 185.84 459.485C192.286 455.114 196.917 448.541 198.864 441H224C226.122 441 228.157 440.157 229.657 438.657C231.157 437.157 232 435.122 232 433V368.776C234.664 368.872 237.312 369 240 369C258.885 368.923 277.69 366.545 296 361.92V418.136C288.459 420.083 281.886 424.714 277.515 431.16C273.144 437.606 271.274 445.425 272.255 453.152C273.236 460.879 277.002 467.982 282.846 473.131C288.69 478.279 296.211 481.12 304 481.12C311.789 481.12 319.31 478.279 325.154 473.131C330.998 467.982 334.764 460.879 335.745 453.152C336.726 445.425 334.856 437.606 330.485 431.16C326.113 424.714 319.541 420.083 312 418.136V357.432C337.26 349.269 361.436 338.072 384 324.088V377C384 379.122 384.843 381.157 386.343 382.657C387.843 384.157 389.878 385 392 385H417.136C418.642 390.78 421.74 396.023 426.076 400.131C430.412 404.24 435.813 407.051 441.666 408.244C447.519 409.437 453.59 408.966 459.188 406.882C464.787 404.799 469.689 401.188 473.338 396.458C476.987 391.729 479.237 386.071 479.832 380.127C480.428 374.183 479.344 368.192 476.706 362.833C474.067 357.474 469.978 352.962 464.904 349.81C459.83 346.657 453.973 344.991 448 345ZM416 17C419.164 17 422.258 17.9384 424.889 19.6965C427.52 21.4546 429.571 23.9534 430.782 26.8771C431.993 29.8007 432.31 33.0177 431.693 36.1214C431.075 39.2251 429.551 42.0761 427.314 44.3137C425.076 46.5513 422.225 48.0752 419.121 48.6926C416.018 49.3099 412.801 48.9931 409.877 47.7821C406.953 46.5711 404.455 44.5203 402.696 41.8891C400.938 39.2579 400 36.1645 400 33C400 28.7565 401.686 24.6869 404.686 21.6863C407.687 18.6857 411.756 17 416 17ZM72 49C68.8355 49 65.742 48.0616 63.1108 46.3035C60.4796 44.5454 58.4289 42.0466 57.2179 39.1229C56.0069 36.1993 55.69 32.9823 56.3074 29.8786C56.9247 26.7749 58.4486 23.9239 60.6862 21.6863C62.9239 19.4487 65.7748 17.9248 68.8785 17.3074C71.9822 16.6901 75.1993 17.0069 78.1229 18.2179C81.0465 19.4289 83.5454 21.4797 85.3035 24.1109C87.0616 26.7421 88 29.8355 88 33C88 37.2435 86.3142 41.3131 83.3137 44.3137C80.3131 47.3143 76.2434 49 72 49ZM48 393C44.8354 393 41.742 392.062 39.1108 390.304C36.4796 388.545 34.4289 386.047 33.2179 383.123C32.0069 380.199 31.69 376.982 32.3074 373.879C32.9247 370.775 34.4486 367.924 36.6862 365.686C38.9239 363.449 41.7748 361.925 44.8785 361.307C47.9822 360.69 51.1993 361.007 54.1229 362.218C57.0465 363.429 59.5454 365.48 61.3035 368.111C63.0616 370.742 64 373.835 64 377C64 381.243 62.3142 385.313 59.3137 388.314C56.3131 391.314 52.2434 393 48 393ZM168 449C164.835 449 161.742 448.062 159.111 446.304C156.48 444.545 154.429 442.047 153.218 439.123C152.007 436.199 151.69 432.982 152.307 429.879C152.925 426.775 154.449 423.924 156.686 421.686C158.924 419.449 161.775 417.925 164.879 417.307C167.982 416.69 171.199 417.007 174.123 418.218C177.047 419.429 179.545 421.48 181.303 424.111C183.062 426.742 184 429.835 184 433C184 437.243 182.314 441.313 179.314 444.314C176.313 447.314 172.243 449 168 449ZM320 449C320 452.165 319.062 455.258 317.303 457.889C315.545 460.52 313.046 462.571 310.123 463.782C307.199 464.993 303.982 465.31 300.878 464.693C297.775 464.075 294.924 462.551 292.686 460.314C290.449 458.076 288.925 455.225 288.307 452.121C287.69 449.018 288.007 445.801 289.218 442.877C290.429 439.953 292.48 437.455 295.111 435.696C297.742 433.938 300.835 433 304 433C308.243 433 312.313 434.686 315.314 437.686C318.314 440.687 320 444.757 320 449ZM461.128 241C445.616 257.336 394.144 307.792 326.504 335.064C339.572 323.133 350.011 308.611 357.155 292.422C364.3 276.233 367.992 258.733 367.998 241.038C368.004 223.343 364.324 205.841 357.19 189.647C350.057 173.453 339.628 158.924 326.568 146.984C394.128 174.272 445.6 224.688 461.128 241ZM248 161V129.408C256.134 129.957 264.183 131.403 272 133.72V161H248ZM208 161V133.72C215.817 131.403 223.866 129.957 232 129.408V161H208ZM304 177V305H176V177H304ZM232 321V352.592C223.866 352.043 215.817 350.597 208 348.28V321H232ZM248 321H272V348.28C264.183 350.597 256.134 352.043 248 352.592V321ZM288 321H312C314.122 321 316.157 320.157 317.657 318.657C319.157 317.157 320 315.122 320 313V289H341.04C329.944 312.224 311.224 330.944 288 342.04V321ZM347.28 273H320V249H351.592C351.039 257.134 349.593 265.182 347.28 273ZM320 233V209H347.28C349.593 216.818 351.039 224.866 351.592 233H320ZM320 193V169C320 166.878 319.157 164.843 317.657 163.343C316.157 161.843 314.122 161 312 161H288V139.96C311.224 151.056 329.944 169.776 341.04 193H320ZM192 139.96V161H168C165.878 161 163.843 161.843 162.343 163.343C160.843 164.843 160 166.878 160 169V193H138.96C150.056 169.776 168.776 151.056 192 139.96ZM132.72 209H160V233H128.408C128.961 224.866 130.407 216.818 132.72 209ZM160 249V273H132.72C130.407 265.182 128.961 257.134 128.408 249H160ZM160 289V313C160 315.122 160.843 317.157 162.343 318.657C163.843 320.157 165.878 321 168 321H192V342.04C168.776 330.944 150.056 312.224 138.96 289H160ZM224 33C224 29.8355 224.938 26.7421 226.696 24.1109C228.455 21.4797 230.953 19.4289 233.877 18.2179C236.801 17.0069 240.018 16.6901 243.121 17.3074C246.225 17.9248 249.076 19.4487 251.314 21.6863C253.551 23.9239 255.075 26.7749 255.693 29.8786C256.31 32.9823 255.993 36.1993 254.782 39.1229C253.571 42.0466 251.52 44.5454 248.889 46.3035C246.258 48.0616 243.164 49 240 49C235.756 49 231.687 47.3143 228.686 44.3137C225.686 41.3131 224 37.2435 224 33ZM18.872 241C34.384 224.664 85.856 174.208 153.496 146.936C140.428 158.867 129.989 173.389 122.845 189.578C115.7 205.767 112.007 223.267 112.001 240.962C111.995 258.657 115.676 276.159 122.81 292.353C129.943 308.547 140.372 323.076 153.432 335.016C85.872 307.728 34.4 257.312 18.872 241ZM448 393C444.835 393 441.742 392.062 439.111 390.304C436.48 388.545 434.429 386.047 433.218 383.123C432.007 380.199 431.69 376.982 432.307 373.879C432.925 370.775 434.449 367.924 436.686 365.686C438.924 363.449 441.775 361.925 444.878 361.307C447.982 360.69 451.199 361.007 454.123 362.218C457.046 363.429 459.545 365.48 461.303 368.111C463.062 370.742 464 373.835 464 377C464 381.243 462.314 385.313 459.314 388.314C456.313 391.314 452.243 393 448 393Z"/><path fill="url(#paint2_linear)" d="M192 201C196.418 201 200 197.418 200 193C200 188.582 196.418 185 192 185C187.582 185 184 188.582 184 193C184 197.418 187.582 201 192 201Z"/><defs><linearGradient id="paint0_linear" x1=".004" x2="479.996" y1="240.773" y2="240.773" gradientUnits="userSpaceOnUse"><stop stop-color="#FF0844"/><stop offset="1" stop-color="#FFB199"/></linearGradient><linearGradient id="paint1_linear" x1=".004" x2="479.996" y1="240.773" y2="240.773" gradientUnits="userSpaceOnUse"><stop stop-color="#FF0844"/><stop offset="1" stop-color="#FFB199"/></linearGradient><linearGradient id="paint2_linear" x1=".004" x2="479.996" y1="240.773" y2="240.773" gradientUnits="userSpaceOnUse"><stop stop-color="#FF0844"/><stop offset="1" stop-color="#FFB199"/></linearGradient></defs></svg>