<svg xmlns="http://www.w3.org/2000/svg" width="448" height="512" fill="none" viewBox="0 0 448 512"><path fill="url(#paint0_linear)" d="M224.001 344.694C219.859 344.694 216.501 348.052 216.501 352.194V360.206C216.501 364.348 219.859 367.706 224.001 367.706C228.143 367.706 231.501 364.348 231.501 360.206V352.194C231.501 348.052 228.143 344.694 224.001 344.694Z"/><path fill="url(#paint1_linear)" d="M447.755 283.859C446.74 272.102 441.16 261.585 432.796 253.847C440.436 225.615 441.844 192.919 436.48 165.441C430.059 132.547 415.17 110.92 394.556 104.545C390.758 103.37 387.051 102.643 383.45 102.331C383.68 100.124 383.808 97.903 383.808 95.678C383.808 60.602 355.271 32.065 320.195 32.065C316.532 32.065 312.918 32.392 309.375 32.997C303.135 13.581 284.914 0 264.081 0C247.262 0 232.464 8.78 224 21.989C215.537 8.78 200.739 0 183.92 0C163.089 0 144.869 13.578 138.628 32.992C135.088 32.39 131.475 32.065 127.807 32.065C92.7299 32.065 64.1939 60.602 64.1939 95.678C64.1939 97.889 64.3119 100.11 64.5399 102.307C60.9569 102.63 57.2599 103.366 53.4459 104.545C32.8319 110.92 17.9429 132.547 11.5219 165.441C6.18594 192.779 7.54794 225.284 15.0849 253.417C5.84894 262.102 0.0649414 274.417 0.0649414 288.064C0.0649414 304.373 8.32494 319.264 21.6659 327.942C18.0049 335.464 16.0969 343.714 16.0969 352.193C16.0969 377.485 33.0789 398.871 56.2349 405.586C56.2009 406.493 56.1779 407.4 56.1779 408.305C56.1779 447.801 88.3109 479.934 127.807 479.934C133.784 479.934 139.673 479.164 145.364 477.723C149.637 497.297 167.093 512 187.928 512C202.914 512 216.157 504.394 224.001 492.84C231.845 504.393 245.087 512 260.074 512C280.909 512 298.366 497.297 302.637 477.725C308.328 479.166 314.217 479.936 320.194 479.936C359.691 479.936 391.823 447.803 391.823 408.307C391.823 407.409 391.801 406.508 391.767 405.608C412.418 399.57 428.56 381.329 431.411 359.675C432.855 348.706 431.059 337.701 426.329 327.947C440.884 318.485 449.292 301.68 447.755 283.859ZM413.037 318.087C410.962 318.965 409.392 320.729 408.76 322.891C408.128 325.053 408.502 327.385 409.779 329.242C415.467 337.517 417.867 347.63 416.539 357.717C414.208 375.427 399.686 390.015 382.009 392.404C374.03 393.483 366.275 392.32 359.262 389.052C361.001 385.479 362.294 381.684 363.096 377.737C363.921 373.678 361.299 369.718 357.24 368.894C353.18 368.071 349.221 370.691 348.397 374.75C347.125 381.012 344.051 386.722 339.509 391.264C326.806 403.967 306.136 403.967 293.433 391.264C290.504 388.335 285.755 388.335 282.827 391.264C279.898 394.193 279.898 398.942 282.827 401.871C292.103 411.147 304.287 415.785 316.472 415.785C328.657 415.785 340.841 411.147 350.117 401.871C350.255 401.733 350.387 401.59 350.523 401.45C358.478 405.611 367.353 407.782 376.398 407.782C376.535 407.782 376.672 407.776 376.808 407.775C376.81 407.952 376.825 408.129 376.825 408.306C376.825 439.531 351.421 464.935 320.196 464.935C303.956 464.935 288.474 457.945 277.719 445.758C274.978 442.652 270.239 442.356 267.133 445.097C264.027 447.838 263.731 452.577 266.472 455.683C272.679 462.716 280.139 468.362 288.359 472.442C286.399 486.302 274.465 497 260.074 497C244.319 497 231.501 484.182 231.501 468.427V392.273C231.501 388.131 228.143 384.773 224.001 384.773C219.859 384.773 216.501 388.131 216.501 392.273V402.442C206.347 391.581 191.91 384.774 175.904 384.774C175.731 384.774 175.56 384.788 175.388 384.79V376.242C175.388 357.299 164.165 340.17 146.796 332.604C142.998 330.95 138.579 332.687 136.924 336.485C135.27 340.282 137.007 344.702 140.804 346.356C152.7 351.538 160.387 363.27 160.387 376.242V387C147.926 390.614 136.965 398.509 129.573 409.629C127.28 413.078 128.218 417.734 131.667 420.027C135.117 422.32 139.771 421.382 142.065 417.933C149.623 406.563 162.272 399.775 175.903 399.775C198.288 399.775 216.5 417.987 216.5 440.372V468.428C216.5 484.183 203.682 497.001 187.927 497.001C173.535 497.001 161.601 486.303 159.643 472.444C167.863 468.364 175.324 462.718 181.53 455.685C184.271 452.58 183.975 447.84 180.869 445.099C177.764 442.358 173.023 442.654 170.283 445.76C159.528 457.947 144.046 464.937 127.806 464.937C96.5799 464.937 71.1769 439.533 71.1769 408.308C71.1769 408.132 71.1919 407.955 71.1929 407.779C71.3599 407.78 71.5249 407.792 71.6929 407.792C82.6849 407.792 93.3159 404.588 102.436 398.525C105.886 396.232 106.823 391.577 104.53 388.127C102.237 384.678 97.5819 383.74 94.1319 386.033C87.4799 390.455 79.7209 392.792 71.6929 392.792C49.3079 392.792 31.0959 374.58 31.0959 352.195C31.0959 343.963 33.5599 336.026 38.2209 329.243C39.4969 327.387 39.8709 325.055 39.2399 322.892C38.6079 320.73 37.0379 318.965 34.9629 318.088C22.8749 312.973 15.0639 301.189 15.0639 288.066C15.0639 270.101 29.6799 255.485 47.6449 255.485C51.7869 255.485 55.1449 252.127 55.1449 247.985C55.1449 243.843 51.7869 240.485 47.6449 240.485C40.7699 240.485 34.2369 241.963 28.3289 244.598C22.4629 219.786 21.6309 191.94 26.2429 168.316C31.4779 141.495 43.0089 123.475 57.8769 118.876C67.3299 115.953 75.1789 116.673 81.8769 121.076C95.5839 130.09 101.293 151.807 103.334 162.483C92.8539 165.274 83.2139 170.716 75.2739 178.495C72.3149 181.394 72.2659 186.142 75.1649 189.101C78.0629 192.059 82.812 192.109 85.771 189.21C94.911 180.255 106.993 175.323 119.791 175.323C134.507 175.323 148.291 181.972 157.49 193.276C154.29 197.296 152.371 202.378 152.371 207.903V208.419H127.807C123.665 208.419 120.307 211.777 120.307 215.919C120.307 220.061 123.665 223.419 127.807 223.419H152.371V248.5H118.042C114.903 239.192 106.096 232.468 95.7419 232.468C82.7659 232.468 72.2099 243.025 72.2099 256C72.2099 268.975 82.7669 279.532 95.7419 279.532C106.096 279.532 114.903 272.808 118.042 263.5H152.371V288.581H127.807C123.665 288.581 120.307 291.939 120.307 296.081C120.307 300.223 123.665 303.581 127.807 303.581H152.371V304.097C152.371 317.073 162.928 327.629 175.903 327.629H272.096C285.072 327.629 295.628 317.072 295.628 304.097V303.581H320.192C324.334 303.581 327.692 300.223 327.692 296.081C327.692 291.939 324.334 288.581 320.192 288.581H295.63V263.5H329.959C333.098 272.808 341.905 279.532 352.259 279.532C365.235 279.532 375.791 268.975 375.791 256C375.791 243.025 365.234 232.468 352.259 232.468C341.905 232.468 333.098 239.192 329.959 248.5H295.63V223.419H320.194C324.336 223.419 327.694 220.061 327.694 215.919C327.694 211.777 324.336 208.419 320.194 208.419H295.63V207.903C295.63 194.927 285.073 184.371 272.098 184.371H175.905C173.925 184.371 172.002 184.62 170.163 185.082C158.144 169.507 139.604 160.322 119.792 160.322C119.264 160.322 118.739 160.347 118.213 160.36C115.882 147.788 108.86 120.896 90.1569 108.567C86.9609 106.46 83.5959 104.876 80.0749 103.8C79.4079 101.363 79.1949 97.822 79.1949 95.678C79.1949 68.873 101.003 47.065 127.808 47.065C140.985 47.065 153.32 52.251 162.541 61.666C165.44 64.626 170.188 64.675 173.147 61.777C176.106 58.879 176.156 54.13 173.258 51.171C167.367 45.156 160.501 40.471 153.013 37.24C157.387 24.134 169.776 15 183.92 15C201.885 15 216.501 29.615 216.501 47.581V75.638C216.501 95.813 200.087 112.227 179.912 112.227C168.024 112.227 156.832 106.415 149.974 96.679C147.589 93.293 142.91 92.482 139.524 94.866C136.137 97.251 135.326 101.93 137.711 105.317C147.375 119.036 163.15 127.227 179.912 127.227C194.201 127.227 207.149 121.385 216.501 111.967V159.808C216.501 163.95 219.859 167.308 224.001 167.308C228.143 167.308 231.501 163.95 231.501 159.808V47.581C231.501 29.616 246.117 15 264.082 15C278.232 15 290.626 24.142 294.995 37.257C287.899 40.32 281.351 44.678 275.677 50.238C272.719 53.137 272.67 57.885 275.569 60.844C278.467 63.802 283.216 63.851 286.175 60.952C295.315 51.996 307.397 47.064 320.195 47.064C347.001 47.064 368.808 68.872 368.808 95.677C368.808 98.405 368.579 101.124 368.131 103.794C362.568 105.447 357.413 108.334 352.787 112.477C349.701 115.24 349.44 119.982 352.204 123.068C354.967 126.153 359.709 126.414 362.794 123.651C370.182 117.035 379.121 115.472 390.124 118.875C404.992 123.474 416.522 141.494 421.758 168.315C426.398 192.083 425.524 220.123 419.561 245.048C413.158 242.127 406.037 240.484 398.577 240.484C394.435 240.484 391.077 243.842 391.077 247.984C391.077 252.126 394.435 255.484 398.577 255.484C416.338 255.484 431.375 268.514 432.811 285.148C434.034 299.328 426.088 312.565 413.037 318.087ZM104.275 256C104.275 260.705 100.447 264.532 95.7419 264.532C91.0369 264.532 87.2099 260.704 87.2099 256C87.2099 251.296 91.0379 247.468 95.7419 247.468C100.448 247.468 104.275 251.295 104.275 256ZM167.373 304.097V207.904C167.373 203.199 171.201 199.372 175.905 199.372H272.098C276.803 199.372 280.63 203.2 280.63 207.904V304.097C280.63 308.802 276.802 312.629 272.098 312.629H175.905C171.2 312.629 167.373 308.801 167.373 304.097ZM343.726 256C343.726 251.295 347.554 247.468 352.259 247.468C356.964 247.468 360.791 251.296 360.791 256C360.791 260.704 356.963 264.532 352.259 264.532C347.554 264.532 343.726 260.705 343.726 256Z"/><path fill="url(#paint2_linear)" d="M268.545 72.453C264.577 71.272 260.399 73.532 259.217 77.502C257.468 83.38 256.581 89.495 256.581 95.678C256.581 99.82 259.939 103.178 264.081 103.178C268.223 103.178 271.581 99.82 271.581 95.678C271.581 90.945 272.258 86.27 273.594 81.781C274.776 77.811 272.515 73.635 268.545 72.453Z"/><path fill="url(#paint3_linear)" d="M256.065 216.436H191.936C187.794 216.436 184.436 219.794 184.436 223.936V288.065C184.436 292.207 187.794 295.565 191.936 295.565H256.065C260.207 295.565 263.565 292.207 263.565 288.065V223.936C263.565 219.793 260.207 216.436 256.065 216.436ZM248.565 280.564H199.436V231.435H248.565V280.564Z"/><defs><linearGradient id="paint0_linear" x1=".065" x2="447.935" y1="256" y2="256" gradientUnits="userSpaceOnUse"><stop stop-color="#6A11CB"/><stop offset="1" stop-color="#2575FC"/></linearGradient><linearGradient id="paint1_linear" x1=".065" x2="447.935" y1="256" y2="256" gradientUnits="userSpaceOnUse"><stop stop-color="#6A11CB"/><stop offset="1" stop-color="#2575FC"/></linearGradient><linearGradient id="paint2_linear" x1=".065" x2="447.935" y1="256" y2="256" gradientUnits="userSpaceOnUse"><stop stop-color="#6A11CB"/><stop offset="1" stop-color="#2575FC"/></linearGradient><linearGradient id="paint3_linear" x1=".065" x2="447.935" y1="256" y2="256" gradientUnits="userSpaceOnUse"><stop stop-color="#6A11CB"/><stop offset="1" stop-color="#2575FC"/></linearGradient></defs></svg>