<svg xmlns="http://www.w3.org/2000/svg" width="512" height="512" fill="none" viewBox="0 0 512 512"><path fill="url(#paint0_linear)" d="M420.92 406H405.92V421H420.92V406Z"/><path fill="url(#paint1_linear)" d="M395.92 406H380.92V421H395.92V406Z"/><path fill="url(#paint2_linear)" d="M345.92 406H330.92V421H345.92V406Z"/><path fill="url(#paint3_linear)" d="M370.92 406H355.92V421H370.92V406Z"/><path fill="url(#paint4_linear)" d="M420.92 380.17H405.92V395.17H420.92V380.17Z"/><path fill="url(#paint5_linear)" d="M395.92 380.17H380.92V395.17H395.92V380.17Z"/><path fill="url(#paint6_linear)" d="M345.92 380.17H330.92V395.17H345.92V380.17Z"/><path fill="url(#paint7_linear)" d="M370.92 380.17H355.92V395.17H370.92V380.17Z"/><path fill="url(#paint8_linear)" d="M243 200H228V215H243V200Z"/><path fill="url(#paint9_linear)" d="M268 200H253V215H268V200Z"/><path fill="url(#paint10_linear)" d="M218 200H203V215H218V200Z"/><path fill="url(#paint11_linear)" d="M512 119.667V77.333H460.96V51.04H434.667V0H392.333V51.04H371.667V0H329.333V51.04H308.667V0H266.333V51.04H245.666V0H203.333V51.089L182.666 51.082V0H140.333V51.069L119.666 51.062V0H77.333V51.048L51.04 51.04V77.333H0V119.667H51.04V140.333H0V182.667H51.04V203.333H0V245.667H51.04V266.333H0V308.667H51.04V329.333H0V371.667H51.04V392.333H0V434.667H51.04V460.91L77.333 460.913V512H119.666V460.918L140.333 460.92V512H182.666V460.926L203.333 460.928V512H245.666V460.934L266.333 460.936V512H308.667V460.941L329.333 460.943V512H371.667V460.949L392.333 460.951V512H434.667V460.957L460.96 460.96V434.667H512V392.333H460.96V389.75L445.96 389.7V445.96H66.03V66.029H445.96V374.75L460.96 374.8V371.667H512V329.333H460.96V308.667H512V266.333H460.96V245.667H512V203.333H460.96V182.667H512V140.333H460.96V119.667H512ZM460.964 92.333H497V104.667H460.964V92.333ZM51.036 104.667H15V92.333H51.036V104.667ZM51.036 167.667H15V155.333H51.036V167.667ZM51.036 230.667H15V218.333H51.036V230.667ZM51.036 293.667H15V281.333H51.036V293.667ZM51.036 356.667H15V344.333H51.036V356.667ZM51.036 419.667H15V407.333H51.036V419.667ZM460.964 407.333H497V419.667H460.964V407.333ZM407.333 460.964H419.667V497H407.333V460.964ZM344.333 460.964H356.667V497H344.333V460.964ZM281.333 460.964H293.667V497H281.333V460.964ZM218.334 460.964H230.667V497H218.334V460.964ZM155.334 460.964H167.667V497H155.334V460.964ZM92.333 460.964H104.666V497H92.333V460.964ZM104.666 51.036H92.333V15H104.666V51.036ZM167.666 51.036H155.333V15H167.666V51.036ZM230.666 51.036H218.333V15H230.666V51.036ZM293.667 51.036H281.333V15H293.667V51.036ZM356.667 51.036H344.333V15H356.667V51.036ZM419.667 51.036H407.333V15H419.667V51.036ZM460.964 344.333H497V356.667H460.964V344.333ZM460.964 281.333H497V293.667H460.964V281.333ZM460.964 218.333H497V230.667H460.964V218.333ZM460.964 155.333H497V167.667H460.964V155.333Z"/><path fill="url(#paint12_linear)" d="M355.05 234.5V219.5H337.087V205.465L355.05 205.5V190.5H337.087V174.913H321.5V157L306.5 156.95V174.913H292.5V157L277.5 156.95V174.913H263.5V157L248.5 156.95V174.913H234.5V157L219.5 156.95V174.913H205.5V157L190.5 156.95V174.913H174.913V190.5H157L156.95 205.45L174.913 205.485V219.5H157L156.95 234.45L174.913 234.485V248.5H157L156.95 263.45L174.913 263.485V277.5H157L156.95 292.45L174.913 292.485V306.5H157L156.95 321.45L174.913 321.485V337.087H190.5V355L205.5 355.05V337.087H219.5V355L234.5 355.05V337.087H248.5V355L263.5 355.05V337.087H277.5V355L292.5 355.05V337.087H306.5V355L321.5 355.05V337.087H337.087V321.465L355.05 321.5V306.5H337.087V292.465L355.05 292.5V277.5H337.087V263.465L355.05 263.5V248.5H337.087V234.465L355.05 234.5ZM189.913 322.087V189.913H322.087V322.087H189.913Z"/><path fill="url(#paint13_linear)" d="M308.67 260.08H293.67V302.08H308.67V260.08Z"/><path fill="url(#paint14_linear)" d="M308.67 210.08H293.67V225.08H308.67V210.08Z"/><path fill="url(#paint15_linear)" d="M308.67 235.08H293.67V250.08H308.67V235.08Z"/><path fill="url(#paint16_linear)" d="M204.28 309.529L238.22 309.58V294.58H204.33L204.28 309.529Z"/><path fill="url(#paint17_linear)" d="M276.84 91H261.84V106H276.84V91Z"/><path fill="url(#paint18_linear)" d="M251.84 91H236.84V106H251.84V91Z"/><path fill="url(#paint19_linear)" d="M422.34 91H286.84V106H422.34V91Z"/><path fill="url(#paint20_linear)" d="M147.05 219.5H116V154H77.83L77.78 169H101V234.45L147.05 234.5V219.5Z"/><path fill="url(#paint21_linear)" d="M147.05 190.55L139.5 190.5V91H77.83L77.78 106H124.5V205.45L147.05 205.5V190.55Z"/><path fill="url(#paint22_linear)" d="M86.83 248.5V280H77.83L77.78 295H101.83V263.5H147L147.05 248.55L86.83 248.5Z"/><path fill="url(#paint23_linear)" d="M147.05 277.55L107 277.5V343H77.83L77.78 357.95L122 358V292.5H147L147.05 277.55Z"/><path fill="url(#paint24_linear)" d="M77.833 406V421H141.833V321.5H147V306.5H126.833V406H77.833Z"/><path fill="url(#paint25_linear)" d="M242.337 406H185.67V421H242.337V406Z"/><path fill="url(#paint26_linear)" d="M292.33 406H277.33V421H292.33V406Z"/><path fill="url(#paint27_linear)" d="M267.33 406H252.33V421H267.33V406Z"/><path fill="url(#paint28_linear)" d="M428 134.167H379.5V182.667H428V134.167ZM413 167.667H394.5V149.167H413V167.667Z"/><path fill="url(#paint29_linear)" d="M428 190.5H379.5V239H428V190.5ZM413 224H394.5V205.5H413V224Z"/><path fill="url(#paint30_linear)" d="M421 278.08L406 278.029V341.08L421 341.13V278.08Z"/><defs><linearGradient id="paint0_linear" x1="0" x2="512" y1="256" y2="256" gradientUnits="userSpaceOnUse"><stop stop-color="#F6D365"/><stop offset="1" stop-color="#FDA085"/></linearGradient><linearGradient id="paint1_linear" x1="0" x2="512" y1="256" y2="256" gradientUnits="userSpaceOnUse"><stop stop-color="#F6D365"/><stop offset="1" stop-color="#FDA085"/></linearGradient><linearGradient id="paint2_linear" x1="0" x2="512" y1="256" y2="256" gradientUnits="userSpaceOnUse"><stop stop-color="#F6D365"/><stop offset="1" stop-color="#FDA085"/></linearGradient><linearGradient id="paint3_linear" x1="0" x2="512" y1="256" y2="256" gradientUnits="userSpaceOnUse"><stop stop-color="#F6D365"/><stop offset="1" stop-color="#FDA085"/></linearGradient><linearGradient id="paint4_linear" x1="0" x2="512" y1="256" y2="256" gradientUnits="userSpaceOnUse"><stop stop-color="#F6D365"/><stop offset="1" stop-color="#FDA085"/></linearGradient><linearGradient id="paint5_linear" x1="0" x2="512" y1="256" y2="256" gradientUnits="userSpaceOnUse"><stop stop-color="#F6D365"/><stop offset="1" stop-color="#FDA085"/></linearGradient><linearGradient id="paint6_linear" x1="0" x2="512" y1="256" y2="256" gradientUnits="userSpaceOnUse"><stop stop-color="#F6D365"/><stop offset="1" stop-color="#FDA085"/></linearGradient><linearGradient id="paint7_linear" x1="0" x2="512" y1="256" y2="256" gradientUnits="userSpaceOnUse"><stop stop-color="#F6D365"/><stop offset="1" stop-color="#FDA085"/></linearGradient><linearGradient id="paint8_linear" x1="0" x2="512" y1="256" y2="256" gradientUnits="userSpaceOnUse"><stop stop-color="#F6D365"/><stop offset="1" stop-color="#FDA085"/></linearGradient><linearGradient id="paint9_linear" x1="0" x2="512" y1="256" y2="256" gradientUnits="userSpaceOnUse"><stop stop-color="#F6D365"/><stop offset="1" stop-color="#FDA085"/></linearGradient><linearGradient id="paint10_linear" x1="0" x2="512" y1="256" y2="256" gradientUnits="userSpaceOnUse"><stop stop-color="#F6D365"/><stop offset="1" stop-color="#FDA085"/></linearGradient><linearGradient id="paint11_linear" x1="0" x2="512" y1="256" y2="256" gradientUnits="userSpaceOnUse"><stop stop-color="#F6D365"/><stop offset="1" stop-color="#FDA085"/></linearGradient><linearGradient id="paint12_linear" x1="0" x2="512" y1="256" y2="256" gradientUnits="userSpaceOnUse"><stop stop-color="#F6D365"/><stop offset="1" stop-color="#FDA085"/></linearGradient><linearGradient id="paint13_linear" x1="0" x2="512" y1="256" y2="256" gradientUnits="userSpaceOnUse"><stop stop-color="#F6D365"/><stop offset="1" stop-color="#FDA085"/></linearGradient><linearGradient id="paint14_linear" x1="0" x2="512" y1="256" y2="256" gradientUnits="userSpaceOnUse"><stop stop-color="#F6D365"/><stop offset="1" stop-color="#FDA085"/></linearGradient><linearGradient id="paint15_linear" x1="0" x2="512" y1="256" y2="256" gradientUnits="userSpaceOnUse"><stop stop-color="#F6D365"/><stop offset="1" stop-color="#FDA085"/></linearGradient><linearGradient id="paint16_linear" x1="0" x2="512" y1="256" y2="256" gradientUnits="userSpaceOnUse"><stop stop-color="#F6D365"/><stop offset="1" stop-color="#FDA085"/></linearGradient><linearGradient id="paint17_linear" x1="0" x2="512" y1="256" y2="256" gradientUnits="userSpaceOnUse"><stop stop-color="#F6D365"/><stop offset="1" stop-color="#FDA085"/></linearGradient><linearGradient id="paint18_linear" x1="0" x2="512" y1="256" y2="256" gradientUnits="userSpaceOnUse"><stop stop-color="#F6D365"/><stop offset="1" stop-color="#FDA085"/></linearGradient><linearGradient id="paint19_linear" x1="0" x2="512" y1="256" y2="256" gradientUnits="userSpaceOnUse"><stop stop-color="#F6D365"/><stop offset="1" stop-color="#FDA085"/></linearGradient><linearGradient id="paint20_linear" x1="0" x2="512" y1="256" y2="256" gradientUnits="userSpaceOnUse"><stop stop-color="#F6D365"/><stop offset="1" stop-color="#FDA085"/></linearGradient><linearGradient id="paint21_linear" x1="0" x2="512" y1="256" y2="256" gradientUnits="userSpaceOnUse"><stop stop-color="#F6D365"/><stop offset="1" stop-color="#FDA085"/></linearGradient><linearGradient id="paint22_linear" x1="0" x2="512" y1="256" y2="256" gradientUnits="userSpaceOnUse"><stop stop-color="#F6D365"/><stop offset="1" stop-color="#FDA085"/></linearGradient><linearGradient id="paint23_linear" x1="0" x2="512" y1="256" y2="256" gradientUnits="userSpaceOnUse"><stop stop-color="#F6D365"/><stop offset="1" stop-color="#FDA085"/></linearGradient><linearGradient id="paint24_linear" x1="0" x2="512" y1="256" y2="256" gradientUnits="userSpaceOnUse"><stop stop-color="#F6D365"/><stop offset="1" stop-color="#FDA085"/></linearGradient><linearGradient id="paint25_linear" x1="0" x2="512" y1="256" y2="256" gradientUnits="userSpaceOnUse"><stop stop-color="#F6D365"/><stop offset="1" stop-color="#FDA085"/></linearGradient><linearGradient id="paint26_linear" x1="0" x2="512" y1="256" y2="256" gradientUnits="userSpaceOnUse"><stop stop-color="#F6D365"/><stop offset="1" stop-color="#FDA085"/></linearGradient><linearGradient id="paint27_linear" x1="0" x2="512" y1="256" y2="256" gradientUnits="userSpaceOnUse"><stop stop-color="#F6D365"/><stop offset="1" stop-color="#FDA085"/></linearGradient><linearGradient id="paint28_linear" x1="0" x2="512" y1="256" y2="256" gradientUnits="userSpaceOnUse"><stop stop-color="#F6D365"/><stop offset="1" stop-color="#FDA085"/></linearGradient><linearGradient id="paint29_linear" x1="0" x2="512" y1="256" y2="256" gradientUnits="userSpaceOnUse"><stop stop-color="#F6D365"/><stop offset="1" stop-color="#FDA085"/></linearGradient><linearGradient id="paint30_linear" x1="0" x2="512" y1="256" y2="256" gradientUnits="userSpaceOnUse"><stop stop-color="#F6D365"/><stop offset="1" stop-color="#FDA085"/></linearGradient></defs></svg>