<svg width="512" height="512" viewBox="0 0 512 512" fill="none" xmlns="http://www.w3.org/2000/svg">
<path d="M256.001 344.694C251.859 344.694 248.501 348.052 248.501 352.194V360.206C248.501 364.348 251.859 367.706 256.001 367.706C260.143 367.706 263.501 364.348 263.501 360.206V352.194C263.501 348.052 260.143 344.694 256.001 344.694Z" fill="white"/>
<path d="M479.755 283.859C478.74 272.102 473.16 261.585 464.796 253.847C472.436 225.615 473.844 192.919 468.48 165.441C462.059 132.547 447.17 110.92 426.556 104.545C422.758 103.37 419.051 102.643 415.45 102.331C415.68 100.124 415.808 97.903 415.808 95.678C415.808 60.602 387.271 32.065 352.195 32.065C348.532 32.065 344.918 32.392 341.375 32.997C335.135 13.581 316.914 0 296.081 0C279.262 0 264.464 8.78 256 21.989C247.537 8.78 232.739 0 215.92 0C195.089 0 176.869 13.578 170.628 32.992C167.088 32.39 163.475 32.065 159.807 32.065C124.73 32.065 96.1939 60.602 96.1939 95.678C96.1939 97.889 96.3119 100.11 96.5399 102.307C92.9569 102.63 89.2599 103.366 85.4459 104.545C64.8319 110.92 49.9429 132.547 43.5219 165.441C38.1859 192.779 39.5479 225.284 47.0849 253.417C37.8489 262.102 32.0649 274.417 32.0649 288.064C32.0649 304.373 40.3249 319.264 53.6659 327.942C50.0049 335.464 48.0969 343.714 48.0969 352.193C48.0969 377.485 65.0789 398.871 88.2349 405.586C88.2009 406.493 88.1779 407.4 88.1779 408.305C88.1779 447.801 120.311 479.934 159.807 479.934C165.784 479.934 171.673 479.164 177.364 477.723C181.637 497.297 199.093 512 219.928 512C234.914 512 248.157 504.394 256.001 492.84C263.845 504.393 277.087 512 292.074 512C312.909 512 330.366 497.297 334.637 477.725C340.328 479.166 346.217 479.936 352.194 479.936C391.691 479.936 423.823 447.803 423.823 408.307C423.823 407.409 423.801 406.508 423.767 405.608C444.418 399.57 460.56 381.329 463.411 359.675C464.855 348.706 463.059 337.701 458.329 327.947C472.884 318.485 481.292 301.68 479.755 283.859ZM445.037 318.087C442.962 318.965 441.392 320.729 440.76 322.891C440.128 325.053 440.502 327.385 441.779 329.242C447.467 337.517 449.867 347.63 448.539 357.717C446.208 375.427 431.686 390.015 414.009 392.404C406.03 393.483 398.275 392.32 391.262 389.052C393.001 385.479 394.294 381.684 395.096 377.737C395.921 373.678 393.299 369.718 389.24 368.894C385.18 368.071 381.221 370.691 380.397 374.75C379.125 381.012 376.051 386.722 371.509 391.264C358.806 403.967 338.136 403.967 325.433 391.264C322.504 388.335 317.755 388.335 314.827 391.264C311.898 394.193 311.898 398.942 314.827 401.871C324.103 411.147 336.287 415.785 348.472 415.785C360.657 415.785 372.841 411.147 382.117 401.871C382.255 401.733 382.387 401.59 382.523 401.45C390.478 405.611 399.353 407.782 408.398 407.782C408.535 407.782 408.672 407.776 408.808 407.775C408.81 407.952 408.825 408.129 408.825 408.306C408.825 439.531 383.421 464.935 352.196 464.935C335.956 464.935 320.474 457.945 309.719 445.758C306.978 442.652 302.239 442.356 299.133 445.097C296.027 447.838 295.731 452.577 298.472 455.683C304.679 462.716 312.139 468.362 320.359 472.442C318.399 486.302 306.465 497 292.074 497C276.319 497 263.501 484.182 263.501 468.427V392.273C263.501 388.131 260.143 384.773 256.001 384.773C251.859 384.773 248.501 388.131 248.501 392.273V402.442C238.347 391.581 223.91 384.774 207.904 384.774C207.731 384.774 207.56 384.788 207.388 384.79V376.242C207.388 357.299 196.165 340.17 178.796 332.604C174.998 330.95 170.579 332.687 168.924 336.485C167.27 340.282 169.007 344.702 172.804 346.356C184.7 351.538 192.387 363.27 192.387 376.242V387C179.926 390.614 168.965 398.509 161.573 409.629C159.28 413.078 160.218 417.734 163.667 420.027C167.117 422.32 171.771 421.382 174.065 417.933C181.623 406.563 194.272 399.775 207.903 399.775C230.288 399.775 248.5 417.987 248.5 440.372V468.428C248.5 484.183 235.682 497.001 219.927 497.001C205.535 497.001 193.601 486.303 191.643 472.444C199.863 468.364 207.324 462.718 213.53 455.685C216.271 452.58 215.975 447.84 212.869 445.099C209.764 442.358 205.023 442.654 202.283 445.76C191.528 457.947 176.046 464.937 159.806 464.937C128.58 464.937 103.177 439.533 103.177 408.308C103.177 408.132 103.192 407.955 103.193 407.779C103.36 407.78 103.525 407.792 103.693 407.792C114.685 407.792 125.316 404.588 134.436 398.525C137.886 396.232 138.823 391.577 136.53 388.127C134.237 384.678 129.582 383.74 126.132 386.033C119.48 390.455 111.721 392.792 103.693 392.792C81.3079 392.792 63.0959 374.58 63.0959 352.195C63.0959 343.963 65.5599 336.026 70.2209 329.243C71.4969 327.387 71.8709 325.055 71.2399 322.892C70.6079 320.73 69.0379 318.965 66.9629 318.088C54.8749 312.973 47.0639 301.189 47.0639 288.066C47.0639 270.101 61.6799 255.485 79.6449 255.485C83.7869 255.485 87.1449 252.127 87.1449 247.985C87.1449 243.843 83.7869 240.485 79.6449 240.485C72.7699 240.485 66.2369 241.963 60.3289 244.598C54.4629 219.786 53.6309 191.94 58.2429 168.316C63.4779 141.495 75.0089 123.475 89.8769 118.876C99.3299 115.953 107.179 116.673 113.877 121.076C127.584 130.09 133.293 151.807 135.334 162.483C124.854 165.274 115.214 170.716 107.274 178.495C104.315 181.394 104.266 186.142 107.165 189.101C110.063 192.059 114.812 192.109 117.771 189.21C126.911 180.255 138.993 175.323 151.791 175.323C166.507 175.323 180.291 181.972 189.49 193.276C186.29 197.296 184.371 202.378 184.371 207.903V208.419H159.807C155.665 208.419 152.307 211.777 152.307 215.919C152.307 220.061 155.665 223.419 159.807 223.419H184.371V248.5H150.042C146.903 239.192 138.096 232.468 127.742 232.468C114.766 232.468 104.21 243.025 104.21 256C104.21 268.975 114.767 279.532 127.742 279.532C138.096 279.532 146.903 272.808 150.042 263.5H184.371V288.581H159.807C155.665 288.581 152.307 291.939 152.307 296.081C152.307 300.223 155.665 303.581 159.807 303.581H184.371V304.097C184.371 317.073 194.928 327.629 207.903 327.629H304.096C317.072 327.629 327.628 317.072 327.628 304.097V303.581H352.192C356.334 303.581 359.692 300.223 359.692 296.081C359.692 291.939 356.334 288.581 352.192 288.581H327.63V263.5H361.959C365.098 272.808 373.905 279.532 384.259 279.532C397.235 279.532 407.791 268.975 407.791 256C407.791 243.025 397.234 232.468 384.259 232.468C373.905 232.468 365.098 239.192 361.959 248.5H327.63V223.419H352.194C356.336 223.419 359.694 220.061 359.694 215.919C359.694 211.777 356.336 208.419 352.194 208.419H327.63V207.903C327.63 194.927 317.073 184.371 304.098 184.371H207.905C205.925 184.371 204.002 184.62 202.163 185.082C190.144 169.507 171.604 160.322 151.792 160.322C151.264 160.322 150.739 160.347 150.213 160.36C147.882 147.788 140.86 120.896 122.157 108.567C118.961 106.46 115.596 104.876 112.075 103.8C111.408 101.363 111.195 97.822 111.195 95.678C111.195 68.873 133.003 47.065 159.808 47.065C172.985 47.065 185.32 52.251 194.541 61.666C197.44 64.626 202.188 64.675 205.147 61.777C208.106 58.879 208.156 54.13 205.258 51.171C199.367 45.156 192.501 40.471 185.013 37.24C189.387 24.134 201.776 15 215.92 15C233.885 15 248.501 29.615 248.501 47.581V75.638C248.501 95.813 232.087 112.227 211.912 112.227C200.024 112.227 188.832 106.415 181.974 96.679C179.589 93.293 174.91 92.482 171.524 94.866C168.137 97.251 167.326 101.93 169.711 105.317C179.375 119.036 195.15 127.227 211.912 127.227C226.201 127.227 239.149 121.385 248.501 111.967V159.808C248.501 163.95 251.859 167.308 256.001 167.308C260.143 167.308 263.501 163.95 263.501 159.808V47.581C263.501 29.616 278.117 15 296.082 15C310.232 15 322.626 24.142 326.995 37.257C319.899 40.32 313.351 44.678 307.677 50.238C304.719 53.137 304.67 57.885 307.569 60.844C310.467 63.802 315.216 63.851 318.175 60.952C327.315 51.996 339.397 47.064 352.195 47.064C379.001 47.064 400.808 68.872 400.808 95.677C400.808 98.405 400.579 101.124 400.131 103.794C394.568 105.447 389.413 108.334 384.787 112.477C381.701 115.24 381.44 119.982 384.204 123.068C386.967 126.153 391.709 126.414 394.794 123.651C402.182 117.035 411.121 115.472 422.124 118.875C436.992 123.474 448.522 141.494 453.758 168.315C458.398 192.083 457.524 220.123 451.561 245.048C445.158 242.127 438.037 240.484 430.577 240.484C426.435 240.484 423.077 243.842 423.077 247.984C423.077 252.126 426.435 255.484 430.577 255.484C448.338 255.484 463.375 268.514 464.811 285.148C466.034 299.328 458.088 312.565 445.037 318.087ZM136.275 256C136.275 260.705 132.447 264.532 127.742 264.532C123.037 264.532 119.21 260.704 119.21 256C119.21 251.296 123.038 247.468 127.742 247.468C132.448 247.468 136.275 251.295 136.275 256ZM199.373 304.097V207.904C199.373 203.199 203.201 199.372 207.905 199.372H304.098C308.803 199.372 312.63 203.2 312.63 207.904V304.097C312.63 308.802 308.802 312.629 304.098 312.629H207.905C203.2 312.629 199.373 308.801 199.373 304.097ZM375.726 256C375.726 251.295 379.554 247.468 384.259 247.468C388.964 247.468 392.791 251.296 392.791 256C392.791 260.704 388.963 264.532 384.259 264.532C379.554 264.532 375.726 260.705 375.726 256Z" fill="white"/>
<path d="M300.545 72.453C296.577 71.272 292.399 73.532 291.217 77.502C289.468 83.38 288.581 89.495 288.581 95.678C288.581 99.82 291.939 103.178 296.081 103.178C300.223 103.178 303.581 99.82 303.581 95.678C303.581 90.945 304.258 86.27 305.594 81.781C306.776 77.811 304.515 73.635 300.545 72.453Z" fill="white"/>
<path d="M288.065 216.436H223.936C219.794 216.436 216.436 219.794 216.436 223.936V288.065C216.436 292.207 219.794 295.565 223.936 295.565H288.065C292.207 295.565 295.565 292.207 295.565 288.065V223.936C295.565 219.793 292.207 216.436 288.065 216.436ZM280.565 280.564H231.436V231.435H280.565V280.564Z" fill="white"/>
</svg>
