<svg width="512" height="512" viewBox="0 0 512 512" fill="none" xmlns="http://www.w3.org/2000/svg">
<path d="M488 312H424C421.878 312 419.843 311.157 418.343 309.657C416.843 308.157 416 306.122 416 304C416 301.878 416.843 299.843 418.343 298.343C419.843 296.843 421.878 296 424 296H480V216H425.36C423.618 215.999 421.924 215.43 420.535 214.379C419.146 213.328 418.138 211.852 417.664 210.176C414.129 197.624 409.11 185.539 402.712 174.176C401.851 172.653 401.512 170.889 401.749 169.155C401.986 167.421 402.785 165.812 404.024 164.576L442.688 125.912L386.08 69.312L347.416 108C346.18 109.239 344.571 110.038 342.837 110.275C341.103 110.512 339.339 110.173 337.816 109.312C326.452 102.916 314.367 97.8968 301.816 94.36C300.137 93.8836 298.66 92.8714 297.61 91.4776C296.56 90.0839 295.995 88.385 296 86.64V32H216V86.64C215.999 88.3819 215.43 90.0761 214.379 91.4652C213.328 92.8542 211.852 93.8622 210.176 94.336C197.624 97.871 185.539 102.891 174.176 109.288C172.653 110.149 170.889 110.488 169.155 110.251C167.421 110.014 165.812 109.215 164.576 107.976L125.92 69.312L69.312 125.92L108 164.584C109.239 165.82 110.038 167.429 110.275 169.163C110.512 170.897 110.173 172.661 109.312 174.184C102.918 185.549 97.8989 197.634 94.36 210.184C93.8836 211.863 92.8714 213.34 91.4776 214.39C90.0839 215.44 88.385 216.005 86.64 216H32V296H86.64C88.7617 296 90.7966 296.843 92.2969 298.343C93.7971 299.843 94.64 301.878 94.64 304C94.64 306.122 93.7971 308.157 92.2969 309.657C90.7966 311.157 88.7617 312 86.64 312H24C21.8783 312 19.8434 311.157 18.3431 309.657C16.8429 308.157 16 306.122 16 304V208C16 205.878 16.8429 203.843 18.3431 202.343C19.8434 200.843 21.8783 200 24 200H80.696C83.8011 190.241 87.7327 180.764 92.448 171.672L52.344 131.576C50.8442 130.076 50.0017 128.041 50.0017 125.92C50.0017 123.799 50.8442 121.764 52.344 120.264L120.264 52.344C121.764 50.8442 123.799 50.0017 125.92 50.0017C128.041 50.0017 130.076 50.8442 131.576 52.344L171.68 92.448C180.768 87.7314 190.243 83.7997 200 80.696V24C200 21.8783 200.843 19.8434 202.343 18.3431C203.843 16.8429 205.878 16 208 16H304C306.122 16 308.157 16.8429 309.657 18.3431C311.157 19.8434 312 21.8783 312 24V80.696C321.757 83.7997 331.232 87.7314 340.32 92.448L380.424 52.344C381.924 50.8442 383.959 50.0017 386.08 50.0017C388.201 50.0017 390.236 50.8442 391.736 52.344L459.656 120.264C461.156 121.764 461.998 123.799 461.998 125.92C461.998 128.041 461.156 130.076 459.656 131.576L419.552 171.672C424.264 180.765 428.195 190.242 431.304 200H488C490.122 200 492.157 200.843 493.657 202.343C495.157 203.843 496 205.878 496 208V304C496 306.122 495.157 308.157 493.657 309.657C492.157 311.157 490.122 312 488 312Z" fill="white"/>
<path d="M456 433.136V376C456 374.726 455.696 373.471 455.113 372.338C454.53 371.205 453.685 370.228 452.648 369.488L400 331.88V256C400 217.809 384.829 181.182 357.823 154.177C330.818 127.171 294.191 112 256 112C217.809 112 181.182 127.171 154.177 154.177C127.171 181.182 112 217.809 112 256V331.88L59.3521 369.48C58.3141 370.221 57.4683 371.199 56.8853 372.333C56.3022 373.468 55.9987 374.725 56.0001 376V433.136C48.4588 435.083 41.8866 439.714 37.5153 446.16C33.144 452.606 31.2737 460.425 32.2551 468.152C33.2365 475.879 37.0022 482.982 42.8462 488.131C48.6903 493.279 56.2115 496.12 64.0001 496.12C71.7887 496.12 79.3099 493.279 85.1539 488.131C90.998 482.982 94.7636 475.879 95.745 468.152C96.7264 460.425 94.8562 452.606 90.4849 446.16C86.1136 439.714 79.5413 435.083 72.0001 433.136V380.12L124.648 342.52C125.686 341.779 126.532 340.801 127.115 339.667C127.698 338.532 128.001 337.275 128 336V256C128 222.052 141.486 189.495 165.49 165.49C189.495 141.486 222.052 128 256 128C289.948 128 322.505 141.486 346.51 165.49C370.514 189.495 384 222.052 384 256V336C384 337.274 384.304 338.529 384.887 339.662C385.47 340.795 386.315 341.772 387.352 342.512L440 380.12V433.136C432.459 435.083 425.887 439.714 421.515 446.16C417.144 452.606 415.274 460.425 416.255 468.152C417.237 475.879 421.002 482.982 426.846 488.131C432.69 493.279 440.212 496.12 448 496.12C455.789 496.12 463.31 493.279 469.154 488.131C474.998 482.982 478.764 475.879 479.745 468.152C480.726 460.425 478.856 452.606 474.485 446.16C470.114 439.714 463.541 435.083 456 433.136V433.136ZM80.0001 464C80.0001 467.165 79.0617 470.258 77.3036 472.889C75.5455 475.52 73.0466 477.571 70.123 478.782C67.1994 479.993 63.9823 480.31 60.8786 479.693C57.7749 479.075 54.924 477.551 52.6864 475.314C50.4487 473.076 48.9249 470.225 48.3075 467.121C47.6901 464.018 48.007 460.801 49.218 457.877C50.429 454.953 52.4798 452.455 55.111 450.696C57.7421 448.938 60.8356 448 64.0001 448C68.2435 448 72.3132 449.686 75.3138 452.686C78.3144 455.687 80.0001 459.757 80.0001 464ZM448 480C444.836 480 441.742 479.062 439.111 477.304C436.48 475.545 434.429 473.047 433.218 470.123C432.007 467.199 431.69 463.982 432.308 460.879C432.925 457.775 434.449 454.924 436.686 452.686C438.924 450.449 441.775 448.925 444.879 448.307C447.982 447.69 451.199 448.007 454.123 449.218C457.047 450.429 459.546 452.48 461.304 455.111C463.062 457.742 464 460.835 464 464C464 468.243 462.314 472.313 459.314 475.314C456.313 478.314 452.244 480 448 480Z" fill="white"/>
<path d="M352 369.136V256C352 230.539 341.886 206.121 323.882 188.118C305.879 170.114 281.461 160 256 160C230.539 160 206.121 170.114 188.118 188.118C170.114 206.121 160 230.539 160 256V369.136C152.459 371.083 145.887 375.714 141.515 382.16C137.144 388.606 135.274 396.425 136.255 404.152C137.237 411.879 141.002 418.982 146.846 424.131C152.69 429.279 160.211 432.12 168 432.12C175.789 432.12 183.31 429.279 189.154 424.131C194.998 418.982 198.764 411.879 199.745 404.152C200.726 396.425 198.856 388.606 194.485 382.16C190.114 375.714 183.541 371.083 176 369.136V256C176 234.783 184.429 214.434 199.432 199.431C214.434 184.429 234.783 176 256 176C277.217 176 297.566 184.429 312.569 199.431C327.572 214.434 336 234.783 336 256V369.136C328.459 371.083 321.887 375.714 317.515 382.16C313.144 388.606 311.274 396.425 312.255 404.152C313.237 411.879 317.002 418.982 322.846 424.131C328.69 429.279 336.211 432.12 344 432.12C351.789 432.12 359.31 429.279 365.154 424.131C370.998 418.982 374.764 411.879 375.745 404.152C376.726 396.425 374.856 388.606 370.485 382.16C366.114 375.714 359.541 371.083 352 369.136ZM184 400C184 403.165 183.062 406.258 181.304 408.889C179.545 411.52 177.047 413.571 174.123 414.782C171.199 415.993 167.982 416.31 164.879 415.693C161.775 415.075 158.924 413.551 156.686 411.314C154.449 409.076 152.925 406.225 152.308 403.121C151.69 400.018 152.007 396.801 153.218 393.877C154.429 390.953 156.48 388.455 159.111 386.696C161.742 384.938 164.836 384 168 384C172.244 384 176.313 385.686 179.314 388.686C182.314 391.687 184 395.757 184 400ZM344 416C340.836 416 337.742 415.062 335.111 413.304C332.48 411.545 330.429 409.047 329.218 406.123C328.007 403.199 327.69 399.982 328.308 396.879C328.925 393.775 330.449 390.924 332.686 388.686C334.924 386.449 337.775 384.925 340.879 384.307C343.982 383.69 347.199 384.007 350.123 385.218C353.047 386.429 355.546 388.48 357.304 391.111C359.062 393.742 360 396.835 360 400C360 404.243 358.314 408.313 355.314 411.314C352.313 414.314 348.244 416 344 416Z" fill="white"/>
<path d="M264 433.136V304C264 301.878 263.157 299.843 261.657 298.343C260.157 296.843 258.122 296 256 296C253.878 296 251.844 296.843 250.343 298.343C248.843 299.843 248 301.878 248 304V433.136C240.459 435.083 233.887 439.714 229.515 446.16C225.144 452.606 223.274 460.425 224.255 468.152C225.237 475.879 229.002 482.982 234.846 488.131C240.69 493.279 248.211 496.12 256 496.12C263.789 496.12 271.31 493.279 277.154 488.131C282.998 482.982 286.764 475.879 287.745 468.152C288.726 460.425 286.856 452.606 282.485 446.16C278.114 439.714 271.541 435.083 264 433.136ZM256 480C252.836 480 249.742 479.062 247.111 477.304C244.48 475.545 242.429 473.047 241.218 470.123C240.007 467.199 239.69 463.982 240.308 460.879C240.925 457.775 242.449 454.924 244.686 452.686C246.924 450.449 249.775 448.925 252.879 448.307C255.982 447.69 259.199 448.007 262.123 449.218C265.047 450.429 267.546 452.48 269.304 455.111C271.062 457.742 272 460.835 272 464C272 468.243 270.314 472.313 267.314 475.314C264.313 478.314 260.244 480 256 480Z" fill="white"/>
<path d="M256 208C246.507 208 237.226 210.815 229.333 216.089C221.439 221.364 215.287 228.86 211.654 237.631C208.021 246.402 207.07 256.053 208.922 265.364C210.774 274.675 215.346 283.228 222.059 289.941C228.772 296.654 237.325 301.226 246.636 303.078C255.947 304.93 265.598 303.979 274.369 300.346C283.14 296.713 290.636 290.561 295.911 282.667C301.185 274.774 304 265.494 304 256C303.987 243.274 298.926 231.072 289.927 222.073C280.928 213.074 268.727 208.013 256 208V208ZM256 288C249.671 288 243.484 286.123 238.222 282.607C232.959 279.091 228.858 274.093 226.436 268.246C224.014 262.399 223.38 255.965 224.615 249.757C225.85 243.55 228.897 237.848 233.373 233.373C237.848 228.897 243.55 225.85 249.757 224.615C255.965 223.38 262.399 224.014 268.246 226.436C274.093 228.858 279.091 232.959 282.607 238.222C286.123 243.484 288 249.671 288 256C288 264.487 284.629 272.626 278.627 278.627C272.626 284.629 264.487 288 256 288V288Z" fill="white"/>
<path d="M248 48H264V64H248V48Z" fill="white"/>
<path d="M103.242 114.576L114.556 103.262L125.87 114.576L114.556 125.89L103.242 114.576Z" fill="white"/>
<path d="M48 248H64V264H48V248Z" fill="white"/>
<path d="M448 248H464V264H448V248Z" fill="white"/>
<path d="M386.056 114.602L397.37 103.289L408.683 114.602L397.37 125.916L386.056 114.602Z" fill="white"/>
</svg>
