<svg width="634" height="593" viewBox="0 0 634 593" fill="none" xmlns="http://www.w3.org/2000/svg">
<path opacity="0.03" d="M-237.019 592.388C-237.019 592.388 -142.205 360.85 187.995 434.95C518.195 509.05 659.105 262.84 629.905 53.2814C600.705 -156.278 520.575 -228.831 277.785 -120.79C34.9951 -12.7486 -136.903 -66.7076 -237.015 -304.998C-239.229 -306.688 -237.019 592.388 -237.019 592.388Z" fill="url(#paint0_linear_110_236)" fill-opacity="0.8"/>
<path opacity="0.03" d="M-237.019 592.388C-237.019 592.388 -142.205 360.85 187.995 434.95C518.195 509.05 659.105 262.84 629.905 53.2814C600.705 -156.278 520.575 -228.831 277.785 -120.79C34.9951 -12.7486 -136.903 -66.7076 -237.015 -304.998C-239.229 -306.688 -237.019 592.388 -237.019 592.388Z" fill="url(#paint1_linear_110_236)" fill-opacity="0.8"/>
<defs>
<linearGradient id="paint0_linear_110_236" x1="197.826" y1="592.388" x2="197.826" y2="-305" gradientUnits="userSpaceOnUse">
<stop stop-color="#33C8C1"/>
<stop offset="1" stop-color="#119BD2"/>
</linearGradient>
<linearGradient id="paint1_linear_110_236" x1="197.826" y1="592.388" x2="197.826" y2="-305" gradientUnits="userSpaceOnUse">
<stop stop-color="#33C8C1"/>
<stop offset="1" stop-color="#119BD2"/>
</linearGradient>
</defs>
</svg>
