<svg width="350" height="107" viewBox="0 0 350 107" fill="none" xmlns="http://www.w3.org/2000/svg">
<path d="M0 30C0 13.4315 13.4315 0 30 0H320C336.569 0 350 13.4315 350 30V70.1613C350 87.7977 334.858 101.635 317.257 100.515C305.134 99.743 291.678 99.0729 280.698 98.9999C238.139 98.7168 214.569 106.958 172.009 107C128.866 107.043 104.961 98.3362 61.8234 98.9999C53.134 99.1335 42.7104 99.6873 32.9195 100.342C15.253 101.524 0 87.6747 0 69.9687V30Z" fill="url(#paint0_linear_109_208)"/>
<defs>
<linearGradient id="paint0_linear_109_208" x1="188.462" y1="107" x2="189.464" y2="5.44183e-05" gradientUnits="userSpaceOnUse">
<stop stop-color="#119BD2"/>
<stop offset="1" stop-color="#33C8C1"/>
</linearGradient>
</defs>
</svg>
