<svg width="512" height="512" viewBox="0 0 512 512" fill="none" xmlns="http://www.w3.org/2000/svg">
<path d="M208 239.672V296C208 298.122 208.843 300.157 210.343 301.657C211.843 303.157 213.878 304 216 304H296C298.122 304 300.157 303.157 301.657 301.657C303.157 300.157 304 298.122 304 296V216C304 213.878 303.157 211.843 301.657 210.343C300.157 208.843 298.122 208 296 208H240.064C237.969 208.002 235.958 208.827 234.464 210.296L210.4 233.968C209.641 234.712 209.038 235.599 208.626 236.579C208.214 237.558 208.001 238.609 208 239.672ZM224 243.024L243.336 224H288V288H224V243.024Z" fill="white"/>
<path d="M464 360C456.926 360.027 450.061 362.396 444.476 366.738C438.892 371.081 434.904 377.151 433.136 384H416V328.8C444.621 309.479 470.824 286.797 494.048 261.24C495.305 259.787 495.996 257.929 495.996 256.008C495.996 254.087 495.305 252.229 494.048 250.776C462.336 215.961 425.167 186.541 384 163.672V92.12L411.56 72.416C417.262 77.2814 424.504 79.9685 432 80C438.909 80.0613 445.656 77.9043 451.249 73.8462C456.842 69.7881 460.985 64.0429 463.07 57.4551C465.154 50.8673 465.071 43.7845 462.831 37.2478C460.591 30.711 456.314 25.0652 450.627 21.1402C444.94 17.2151 438.144 15.218 431.238 15.4423C424.332 15.6666 417.68 18.1005 412.26 22.3862C406.84 26.672 402.938 32.5835 401.127 39.2518C399.316 45.9201 399.692 52.9934 402.2 59.432L371.344 81.496C370.31 82.2362 369.467 83.2124 368.885 84.3435C368.304 85.4746 368 86.7281 368 88V155.432C335.567 139.325 300.166 130.066 264 128.232V78.864C271.541 76.9169 278.113 72.2862 282.485 65.8399C286.856 59.3937 288.726 51.5745 287.745 43.848C286.764 36.1215 282.998 29.0181 277.154 23.8694C271.31 18.7207 263.789 15.8801 256 15.8801C248.211 15.8801 240.69 18.7207 234.846 23.8694C229.002 29.0181 225.236 36.1215 224.255 43.848C223.274 51.5745 225.144 59.3937 229.515 65.8399C233.886 72.2862 240.459 76.9169 248 78.864V128.224C214.787 129.841 182.195 137.831 152 151.76V88C152 86.7281 151.696 85.4746 151.115 84.3435C150.533 83.2124 149.69 82.2362 148.656 81.496L117.8 59.432C120.227 53.0627 120.554 46.0839 118.731 39.5158C116.909 32.9477 113.034 27.1347 107.671 22.9266C102.309 18.7184 95.7418 16.3358 88.9288 16.127C82.1158 15.9182 75.4146 17.8942 69.8048 21.766C64.1951 25.6379 59.9709 31.2027 57.7498 37.6468C55.5286 44.091 55.4271 51.0767 57.4599 57.5827C59.4927 64.0887 63.5533 69.774 69.0481 73.8073C74.5429 77.8406 81.1838 80.0106 88 80C95.4957 79.9685 102.738 77.2814 108.44 72.416L136 92.12V159.432C91.6447 182.79 51.6981 213.698 17.952 250.768C16.6954 252.221 16.0039 254.079 16.0039 256C16.0039 257.921 16.6954 259.779 17.952 261.232C45.4923 291.469 77.1524 317.678 112 339.088V384H94.864C92.9168 376.459 88.2861 369.886 81.8399 365.515C75.3937 361.144 67.5745 359.274 59.8479 360.255C52.1214 361.236 45.0181 365.002 39.8694 370.846C34.7207 376.69 31.8801 384.211 31.8801 392C31.8801 399.789 34.7207 407.31 39.8694 413.154C45.0181 418.998 52.1214 422.764 59.8479 423.745C67.5745 424.726 75.3937 422.856 81.8399 418.485C88.2861 414.114 92.9168 407.541 94.864 400H120C122.122 400 124.157 399.157 125.657 397.657C127.157 396.157 128 394.122 128 392V348.328C160.095 366.459 195.424 378.145 232 382.728V440H214.864C212.917 432.459 208.286 425.886 201.84 421.515C195.394 417.144 187.574 415.274 179.848 416.255C172.121 417.236 165.018 421.002 159.869 426.846C154.721 432.69 151.88 440.211 151.88 448C151.88 455.789 154.721 463.31 159.869 469.154C165.018 474.998 172.121 478.764 179.848 479.745C187.574 480.726 195.394 478.856 201.84 474.485C208.286 470.114 212.917 463.541 214.864 456H240C242.122 456 244.157 455.157 245.657 453.657C247.157 452.157 248 450.122 248 448V383.776C250.664 383.872 253.312 384 256 384C274.885 383.923 293.69 381.545 312 376.92V433.136C304.459 435.083 297.886 439.714 293.515 446.16C289.144 452.606 287.274 460.425 288.255 468.152C289.236 475.879 293.002 482.982 298.846 488.131C304.69 493.279 312.211 496.12 320 496.12C327.789 496.12 335.31 493.279 341.154 488.131C346.998 482.982 350.764 475.879 351.745 468.152C352.726 460.425 350.856 452.606 346.485 446.16C342.113 439.714 335.541 435.083 328 433.136V372.432C353.26 364.269 377.436 353.072 400 339.088V392C400 394.122 400.843 396.157 402.343 397.657C403.843 399.157 405.878 400 408 400H433.136C434.642 405.78 437.74 411.023 442.076 415.131C446.412 419.24 451.813 422.051 457.666 423.244C463.519 424.437 469.59 423.966 475.188 421.882C480.787 419.799 485.689 416.188 489.338 411.458C492.987 406.729 495.237 401.071 495.832 395.127C496.428 389.183 495.344 383.192 492.706 377.833C490.067 372.474 485.978 367.962 480.904 364.81C475.83 361.657 469.973 359.991 464 360V360ZM432 32C435.164 32 438.258 32.9384 440.889 34.6965C443.52 36.4546 445.571 38.9534 446.782 41.8771C447.993 44.8007 448.31 48.0177 447.693 51.1214C447.075 54.2251 445.551 57.0761 443.314 59.3137C441.076 61.5513 438.225 63.0752 435.121 63.6926C432.018 64.3099 428.801 63.9931 425.877 62.7821C422.953 61.5711 420.455 59.5203 418.696 56.8891C416.938 54.2579 416 51.1645 416 48C416 43.7565 417.686 39.6869 420.686 36.6863C423.687 33.6857 427.756 32 432 32ZM88 64C84.8355 64 81.742 63.0616 79.1108 61.3035C76.4796 59.5454 74.4289 57.0466 73.2179 54.1229C72.0069 51.1993 71.69 47.9823 72.3074 44.8786C72.9247 41.7749 74.4486 38.9239 76.6862 36.6863C78.9239 34.4487 81.7748 32.9248 84.8785 32.3074C87.9822 31.6901 91.1993 32.0069 94.1229 33.2179C97.0465 34.4289 99.5454 36.4797 101.303 39.1109C103.062 41.7421 104 44.8355 104 48C104 52.2435 102.314 56.3131 99.3137 59.3137C96.3131 62.3143 92.2434 64 88 64ZM64 408C60.8354 408 57.742 407.062 55.1108 405.304C52.4796 403.545 50.4289 401.047 49.2179 398.123C48.0069 395.199 47.69 391.982 48.3074 388.879C48.9247 385.775 50.4486 382.924 52.6862 380.686C54.9239 378.449 57.7748 376.925 60.8785 376.307C63.9822 375.69 67.1993 376.007 70.1229 377.218C73.0465 378.429 75.5454 380.48 77.3035 383.111C79.0616 385.742 80 388.835 80 392C80 396.243 78.3142 400.313 75.3137 403.314C72.3131 406.314 68.2434 408 64 408ZM184 464C180.835 464 177.742 463.062 175.111 461.304C172.48 459.545 170.429 457.047 169.218 454.123C168.007 451.199 167.69 447.982 168.307 444.879C168.925 441.775 170.449 438.924 172.686 436.686C174.924 434.449 177.775 432.925 180.879 432.307C183.982 431.69 187.199 432.007 190.123 433.218C193.047 434.429 195.545 436.48 197.303 439.111C199.062 441.742 200 444.835 200 448C200 452.243 198.314 456.313 195.314 459.314C192.313 462.314 188.243 464 184 464ZM336 464C336 467.165 335.062 470.258 333.303 472.889C331.545 475.52 329.046 477.571 326.123 478.782C323.199 479.993 319.982 480.31 316.878 479.693C313.775 479.075 310.924 477.551 308.686 475.314C306.449 473.076 304.925 470.225 304.307 467.121C303.69 464.018 304.007 460.801 305.218 457.877C306.429 454.953 308.48 452.455 311.111 450.696C313.742 448.938 316.835 448 320 448C324.243 448 328.313 449.686 331.314 452.686C334.314 455.687 336 459.757 336 464ZM477.128 256C461.616 272.336 410.144 322.792 342.504 350.064C355.572 338.133 366.011 323.611 373.155 307.422C380.3 291.233 383.992 273.733 383.998 256.038C384.004 238.343 380.324 220.841 373.19 204.647C366.057 188.453 355.628 173.924 342.568 161.984C410.128 189.272 461.6 239.688 477.128 256ZM264 176V144.408C272.134 144.957 280.183 146.403 288 148.72V176H264ZM224 176V148.72C231.817 146.403 239.866 144.957 248 144.408V176H224ZM320 192V320H192V192H320ZM248 336V367.592C239.866 367.043 231.817 365.597 224 363.28V336H248ZM264 336H288V363.28C280.183 365.597 272.134 367.043 264 367.592V336ZM304 336H328C330.122 336 332.157 335.157 333.657 333.657C335.157 332.157 336 330.122 336 328V304H357.04C345.944 327.224 327.224 345.944 304 357.04V336ZM363.28 288H336V264H367.592C367.039 272.134 365.593 280.182 363.28 288V288ZM336 248V224H363.28C365.593 231.818 367.039 239.866 367.592 248H336ZM336 208V184C336 181.878 335.157 179.843 333.657 178.343C332.157 176.843 330.122 176 328 176H304V154.96C327.224 166.056 345.944 184.776 357.04 208H336ZM208 154.96V176H184C181.878 176 179.843 176.843 178.343 178.343C176.843 179.843 176 181.878 176 184V208H154.96C166.056 184.776 184.776 166.056 208 154.96V154.96ZM148.72 224H176V248H144.408C144.961 239.866 146.407 231.818 148.72 224V224ZM176 264V288H148.72C146.407 280.182 144.961 272.134 144.408 264H176ZM176 304V328C176 330.122 176.843 332.157 178.343 333.657C179.843 335.157 181.878 336 184 336H208V357.04C184.776 345.944 166.056 327.224 154.96 304H176ZM240 48C240 44.8355 240.938 41.7421 242.696 39.1109C244.455 36.4797 246.953 34.4289 249.877 33.2179C252.801 32.0069 256.018 31.6901 259.121 32.3074C262.225 32.9248 265.076 34.4487 267.314 36.6863C269.551 38.9239 271.075 41.7749 271.693 44.8786C272.31 47.9823 271.993 51.1993 270.782 54.1229C269.571 57.0466 267.52 59.5454 264.889 61.3035C262.258 63.0616 259.164 64 256 64C251.756 64 247.687 62.3143 244.686 59.3137C241.686 56.3131 240 52.2435 240 48ZM34.872 256C50.384 239.664 101.856 189.208 169.496 161.936C156.428 173.867 145.989 188.389 138.845 204.578C131.7 220.767 128.007 238.267 128.001 255.962C127.995 273.657 131.676 291.159 138.81 307.353C145.943 323.547 156.372 338.076 169.432 350.016C101.872 322.728 50.4 272.312 34.872 256ZM464 408C460.835 408 457.742 407.062 455.111 405.304C452.48 403.545 450.429 401.047 449.218 398.123C448.007 395.199 447.69 391.982 448.307 388.879C448.925 385.775 450.449 382.924 452.686 380.686C454.924 378.449 457.775 376.925 460.878 376.307C463.982 375.69 467.199 376.007 470.123 377.218C473.046 378.429 475.545 380.48 477.303 383.111C479.062 385.742 480 388.835 480 392C480 396.243 478.314 400.313 475.314 403.314C472.313 406.314 468.243 408 464 408Z" fill="white"/>
<path d="M208 216C212.418 216 216 212.418 216 208C216 203.582 212.418 200 208 200C203.582 200 200 203.582 200 208C200 212.418 203.582 216 208 216Z" fill="white"/>
</svg>
